<?xml version="1.0" encoding="utf-8"?>
<!-- Generator: Adobe Illustrator 27.9.0, SVG Export Plug-In . SVG Version: 6.00 Build 0)  -->
<svg version="1.1" id="Layer_1" xmlns="http://www.w3.org/2000/svg" xmlns:xlink="http://www.w3.org/1999/xlink" x="0px" y="0px"
	 viewBox="0 0 69.7 69.7" style="enable-background:new 0 0 69.7 69.7;" xml:space="preserve">
<style type="text/css">
	.st0{fill:#EF8627;}
	.st1{fill:#FFFFFF;}
	.st2{fill:#1A6CAE;}
	.st3{fill:#5AA552;}
	.st4{fill:#F8E8C8;}
	.st5{fill:#1B3B69;}
</style>
<g>
	<path class="st0" d="M27,35.6C26.9,35.6,26.9,35.6,27,35.6c-0.1-0.3-0.4-0.4-0.6-0.5c-1.4-1.2-2.4-2.7-3.1-4.4
		c-0.6-1.5-1-3.1-1-4.7c0-0.7,0-1.4,0.1-2c0.1-0.6,0.2-1.3,0.4-1.8c0.3-0.7,0.5-1.4,0.9-2c0.5-0.9,1-1.6,1.6-2.4
		c0.7-0.8,1.4-1.5,2.3-2.1c1-0.6,1.9-1.2,3-1.6c1-0.3,1.9-0.6,2.9-0.7c1.3-0.1,2.6-0.1,3.8,0.2c1.4,0.3,2.7,0.8,4,1.5
		c0.9,0.6,1.7,1.1,2.5,1.9c1,1,1.8,2.1,2.3,3.3c0.4,0.8,0.7,1.6,0.9,2.5c0.3,1,0.4,1.9,0.4,2.9c0,0.6-0.1,1.2-0.2,1.8
		C47,29,46.5,30.2,46,31.3c-0.3,0.6-0.6,1.1-0.9,1.7v0c-0.1,0.1-0.1,0.1-0.2,0.1c-0.7,1-1.5,1.8-2.5,2.6c-0.3,0.3-0.6,0.6-1,0.7
		c-4.1-2.5-8-2.2-11.7,1c-0.5-0.1-1-0.4-1.5-0.7C27.9,36.3,27.5,35.9,27,35.6z M28.6,21.8c-0.1,0-0.1,0.1-0.1,0.1l0,0
		c-0.2,0.1-0.3,0.3-0.3,0.5c-0.4,0.8-0.6,1.6-0.8,2.4c-0.2,1.3-0.1,2.5,0.4,3.7c0.5,1.2,1.3,2.3,2.3,3.1c0.3,0.2,0.5,0.5,0.9,0.5
		l0,0c0,0.1,0.1,0.2,0.2,0.2c0.4,0.2,0.7,0.4,1.1,0.5c0.7,0.3,1.4,0.5,2.2,0.5c0.2,0,0.3,0,0.5,0c0.5,0,0.9,0.1,1.3-0.1
		c0.5-0.2,0.9-0.3,1.4-0.5c0.7-0.3,1.3-0.7,1.9-1.1c0.8-0.6,1.4-1.4,1.9-2.3c0.5-1,0.8-2,0.9-3.1c0.1-1.5-0.3-2.9-1-4.1
		c-0.1-0.1-0.1-0.2-0.2-0.2l0,0c0-0.1-0.1-0.2-0.1-0.3c-0.5-0.7-1-1.3-1.6-1.8c-0.4-0.3-0.8-0.7-1.4-0.8c-0.1-0.1-0.2-0.1-0.3-0.1
		c0-0.1,0-0.2-0.1-0.2c-0.3,0-0.5-0.2-0.8-0.2c-1.2-0.3-2.4-0.3-3.5-0.1c-0.6,0.1-1.3,0.3-1.8,0.7l0,0c-0.2-0.1-0.3,0.1-0.4,0.1
		c-1,0.5-1.7,1.3-2.4,2.1C28.7,21.6,28.6,21.7,28.6,21.8L28.6,21.8z M41,19.9L41,19.9c0,0.2,0.2,0.3,0.3,0.3
		c0.5,0.1,0.9,0.1,1.3-0.1c0.1-0.1,0.2-0.2,0.3-0.3c0.2-0.3,0.3-0.6,0.2-1c-0.2-1-1-1.2-1.9-0.9c-0.4,0.2-0.7,0.6-0.6,1
		C40.6,19.2,40.6,19.7,41,19.9z"/>
	<circle class="st1" cx="34.8" cy="26" r="7.7"/>
	<path class="st2" d="M18.3,26.3c-0.1-0.6-0.1-1.1,0-1.6C18.4,25.2,18.4,25.8,18.3,26.3z"/>
	<path class="st3" d="M18.5,23.6c0-0.1,0-0.2,0.1-0.3C18.6,23.4,18.5,23.5,18.5,23.6z"/>
	<path class="st3" d="M18.5,23.8c-0.1-0.1-0.1-0.1,0-0.2C18.5,23.7,18.5,23.7,18.5,23.8z"/>
	<path class="st3" d="M45.3,45.8C45.3,45.8,45.3,45.8,45.3,45.8C45.2,45.8,45.2,45.8,45.3,45.8z"/>
	<path class="st3" d="M44.9,46.9C44.9,47,44.9,47,44.9,46.9C44.8,47,44.8,47,44.9,46.9C44.8,46.9,44.9,46.9,44.9,46.9z"/>
	<path class="st3" d="M18.6,22.7c-0.1-0.1,0-0.1,0-0.1C18.6,22.6,18.6,22.6,18.6,22.7z"/>
	<path class="st3" d="M51.2,27.9C51.2,27.9,51.2,27.9,51.2,27.9C51.2,28,51.2,28,51.2,27.9C51.1,27.9,51.1,27.9,51.2,27.9z"/>
	<path class="st3" d="M57.6,18.6C57.6,18.6,57.6,18.6,57.6,18.6L57.6,18.6L57.6,18.6z"/>
	<path class="st3" d="M30,10.2C30,10.1,30,10.1,30,10.2C30.1,10.2,30,10.2,30,10.2z"/>
	<path class="st4" d="M28.6,21.8c0,0.1,0,0.1-0.1,0.1C28.5,21.9,28.6,21.8,28.6,21.8z"/>
	<path class="st0" d="M32.9,20.7c0.4-0.3,0.9-0.4,1.3-0.4c1.6-0.2,3.1,0.3,4.3,1.4c1.1,1,1.8,2.2,1.9,3.7c0.1,1.5-0.3,2.8-1.2,4
		c-0.8,1.1-1.8,1.7-3.1,2c-1.3,0.3-2.6,0.2-3.8-0.4c-1-0.5-1.9-1.2-2.4-2.2c-0.8-1.2-1-2.6-0.7-4c0.1-0.5,0.2-0.9,0.5-1.3
		c0.3,0.4,0.5,0.6,0.8,0.9c0.6,0.5,1.6,0.7,2.4,0.2c0.8-0.4,1.2-1.4,1-2.2c-0.1-0.5-0.3-1-0.7-1.3C33.2,21.1,33,21,32.9,20.7z"/>
	<path class="st5" d="M18.5,23.8c0,0.3-0.1,0.6-0.1,0.9c-0.1,0.6-0.1,1.1,0,1.6c0.1,0.7,0.1,1.3,0.2,2c0.2,1.7,0.8,3.3,1.5,4.9
		c1,2,2.3,3.8,4.1,5.2c1.2,1,2.4,1.9,3.9,2.6c-0.5,1.5-0.5,3.1-0.3,4.7c-2,2-3.9,4-5.9,6c-0.4-0.4-0.7-0.9-1-1.4
		c-1.3-1.8-2.4-3.7-3.5-5.7c-1.2-2.1-2.3-4.3-3.3-6.5c-1.1-2.5-2-5.1-2.6-7.7c-0.5-2.2-0.6-4.5-0.4-6.7c0.2-1.7,0.5-3.4,1-5
		c0.7-2.3,1.8-4.3,3.2-6.3C16,11.1,17,10,18,9c1.7-1.7,3.6-3,5.7-4.1c2.2-1.1,4.4-2,6.8-2.3c0.2,0,0.4-0.1,0.5-0.1
		c0.1,0,0.1,0,0.2,0c1.5-0.4,3.1-0.4,4.7-0.3c0.4,0,0.8,0.1,1.2,0.1c0.1,0.1,0.2,0.1,0.3,0c0.5,0,0.9,0.1,1.3,0.2
		c0.1,0.1,0.2,0.1,0.3,0.1c1,0.1,1.9,0.4,2.8,0.6C43,3.5,44.3,4,45.5,4.6c1.1,0.5,2.1,1.2,3.1,1.8c1.8,1.2,3.4,2.7,4.8,4.4
		c1.3,1.5,2.3,3.1,3.1,4.9c0.5,1,0.9,1.9,1.2,3c0,0,0,0.1,0,0.1c0.5,1.3,0.8,2.7,1,4.1c0.3,2,0.3,4.1,0,6.1c-0.2,1.4-0.6,2.8-1,4.1
		c-0.8,2.6-1.9,5-3,7.4c-1.1,2.3-2.3,4.4-3.6,6.5C49.1,50,46.9,53,44.7,56c-1.2,1.6-2.4,3.1-3.7,4.6c-1.9,2.3-3.9,4.5-5.9,6.7
		c-0.1,0.1-0.2,0.2-0.3,0.3c-2.4-2.6-4.7-5.2-6.9-8c2.4-2.4,4.8-4.8,7.1-7.3c2.1,0.4,4.1,0.1,5.9-0.9c1.9-1,3.2-2.5,4-4.4
		c0,0,0-0.1,0-0.1c0.1-0.4,0.3-0.7,0.4-1.1c0,0,0-0.1,0-0.1c0.1-0.5,0.2-1,0.2-1.4c0.1-1.7-0.2-3.2-1-4.7c0-0.1-0.1-0.1-0.1-0.2
		c1.3-1.1,2.5-2.2,3.6-3.6c1.1-1.4,1.9-3,2.5-4.7c0.4-1.1,0.6-2.2,0.8-3.2c0,0,0,0,0.1,0c0,0,0-0.1,0-0.1c0.1-1,0.2-2,0.1-3.1
		c-0.1-1.7-0.5-3.3-1.1-4.9c-0.6-1.4-1.3-2.8-2.2-4c-1.1-1.4-2.3-2.5-3.7-3.5c-1.1-0.8-2.3-1.5-3.6-1.9c-1.8-0.7-3.7-1.1-5.7-1.1
		c-1.7,0-3.4,0.3-5,0.7c0,0-0.1,0-0.1,0c-1.6,0.5-3.1,1.1-4.4,2.1c-1.4,1-2.6,2.1-3.7,3.4c-1.3,1.5-2.2,3.2-2.9,5
		c-0.2,0.6-0.4,1.3-0.5,1.9c-0.1,0-0.1,0.1,0,0.1c0,0.2-0.1,0.5-0.1,0.7c-0.1,0.1-0.1,0.2-0.1,0.3v0C18.4,23.7,18.4,23.7,18.5,23.8z
		"/>
	<path class="st3" d="M35.6,44.5c1,0.4,2.1,0.8,3.1,1.2c1.5-1.4,2.9-2.8,4.3-4.3c0.9,1.5,0.8,4.5-0.9,6.7c-1.7,2.2-4.9,3.4-7.9,2.4
		c-2.6,2.5-5.1,5.2-7.6,7.8c-1.4-1.6-2.6-3.3-3.9-4.9c2.3-2.5,4.7-4.7,6.9-7.1c0-0.4-0.1-0.7-0.2-1.1c-0.2-1-0.1-2,0.1-2.9
		c0.4-1.8,1.3-3.2,2.8-4.3c0.9-0.6,1.8-1,2.8-1.1c1-0.2,1.9-0.1,2.8,0.1c0.2,0.1,0.5,0.1,0.6,0.3c-1.4,1.4-2.8,2.8-4.1,4.2
		C34.6,42,35.3,43.9,35.6,44.5z"/>
	<circle class="st1" cx="41.8" cy="19.1" r="1.4"/>
</g>
</svg>
