<?xml version="1.0" encoding="utf-8"?>
<!-- Generator: Adobe Illustrator 27.9.0, SVG Export Plug-In . SVG Version: 6.00 Build 0)  -->
<svg version="1.1" id="Layer_1" xmlns="http://www.w3.org/2000/svg" xmlns:xlink="http://www.w3.org/1999/xlink" x="0px" y="0px"
	 viewBox="0 0 367.7 577.5" style="enable-background:new 0 0 367.7 577.5;" xml:space="preserve">
<style type="text/css">
	.st0{fill:#EF8627;}
	.st1{fill:#FFFFFF;}
	.st2{fill:#1A6CAE;}
	.st3{fill:#5AA552;}
	.st4{fill:#F8E8C8;}
	.st5{fill:#1B3B69;}
</style>
<g>
	<path class="st0" d="M127.6,245.4c-0.1-0.1-0.2-0.2-0.4-0.2c-0.5-1.7-2.2-2.2-3.4-3.3c-8.9-8.1-16-17.5-20.3-28.8
		c-3.8-9.9-6.2-20.1-6.5-30.7c-0.1-4.5,0.2-9,0.9-13.4c0.7-4.1,1.2-8.2,2.6-12.1c1.6-4.5,3.4-8.9,5.6-13.2
		c2.9-5.7,6.5-10.7,10.5-15.6c4.3-5.2,9.2-9.8,14.8-13.6c6.2-4.2,12.8-7.8,19.8-10.3c6.2-2.2,12.7-3.6,19.3-4.3
		c8.4-0.9,16.8-0.7,25,1.1c9.2,2,18.1,4.9,26.2,10.1c5.8,3.7,11.4,7.5,16.3,12.4c6.4,6.4,11.5,13.7,15.4,21.9
		c2.5,5.2,4.3,10.7,5.7,16.2c1.6,6.2,2.8,12.5,2.7,18.9c0,4-0.7,8-1,12.1c-0.8,8.6-3.8,16.6-7.4,24.3c-1.8,3.7-3.8,7.4-5.8,11l0,0.1
		c-0.3,0.3-0.7,0.5-1,0.8c-4.7,6.4-10.1,12.1-16.3,17c-2,1.6-3.6,3.7-6.3,4.3c-27.2-16.7-52.8-14.6-77.2,6.3
		c-3.3-0.8-6.6-2.7-9.8-4.5C133.7,250,130.9,247.3,127.6,245.4z M138.6,154.1c-0.4,0-0.6,0.3-0.5,0.7l-0.1,0.1
		c-1.1,0.8-1.7,1.9-2.2,3c-2.3,5.1-4.2,10.4-5.1,16c-1.3,8.3-0.5,16.3,2.6,24.1c3.2,8.1,8.2,15.1,14.9,20.7c1.7,1.5,3.4,3.3,5.9,3.5
		h0c0,0.8,0.5,1.1,1.1,1.4c2.4,1.1,4.8,2.3,7.3,3.3c4.6,1.8,9.3,3.2,14.3,2.9c1.1,0,2.1,0.1,3.2,0.1c2.9,0.1,5.8,0.3,8.6-0.6
		c3-1,6.1-1.9,9.1-2.9c4.6-1.6,8.7-4.3,12.4-7.2c5.1-4,9.3-8.9,12.4-14.8c3.3-6.5,5.3-13.2,5.9-20.3c0.8-9.7-1.8-18.8-6.3-27.3
		c-0.3-0.6-0.6-1.2-1.3-1.4l0,0c0.2-0.8-0.3-1.5-0.8-2c-3-4.4-6.5-8.4-10.8-11.6c-2.8-2-5.5-4.4-9.1-5c-0.3-0.9-1.2-0.6-1.8-0.7
		c-0.1-0.4-0.2-1-0.7-1c-1.9,0-3.4-1-5.2-1.5c-7.7-2-15.5-1.8-23.2-0.6c-4.2,0.7-8.2,2.1-11.8,4.4l0,0c-1-0.3-1.6,0.4-2.3,0.8
		c-6.2,3.5-11.1,8.5-15.6,13.8C139,152.6,138.4,153.2,138.6,154.1L138.6,154.1z M220.7,141.3L220.7,141.3c0,1.4,1.2,1.6,2,1.7
		c2.9,0.4,5.8,0.8,8.4-0.8c0.5-0.7,1.1-1.4,1.6-2.1c1.5-2,2-4.2,1.4-6.6c-1.5-6.3-6.8-7.9-12.2-5.9c-2.8,1.1-4.3,3.6-4.2,6.5
		C217.6,136.9,217.5,139.9,220.7,141.3z"/>
	<circle class="st1" cx="179.5" cy="181.6" r="50.6"/>
	<path class="st2" d="M70.4,183.6c-0.4-3.6-0.6-7.2,0.2-10.7C70.7,176.4,70.7,180,70.4,183.6z"/>
	<path class="st3" d="M71.4,165.6c0-0.6-0.2-1.3,0.3-1.8C72,164.5,71.8,165.1,71.4,165.6z"/>
	<path class="st3" d="M71.3,166.9c-0.6-0.4-0.6-0.8,0.1-1.1C71.3,166.2,71.3,166.5,71.3,166.9z"/>
	<path class="st3" d="M248.5,312.3c0.1,0.2,0.1,0.4-0.1,0.5C248.2,312.6,248.3,312.5,248.5,312.3z"/>
	<path class="st3" d="M245.9,320.1c0.1,0.2,0,0.4-0.1,0.5c0-0.1,0-0.2,0-0.4C245.8,320.1,245.9,320.1,245.9,320.1z"/>
	<path class="st3" d="M72.4,159.5c-0.3-0.4-0.2-0.6,0.2-0.8C72.5,158.9,72.4,159.2,72.4,159.5z"/>
	<path class="st3" d="M287.5,194c0.3,0.1,0.4,0.2,0.2,0.4c-0.1,0.1-0.2,0.1-0.3,0.1C287.3,194.4,287.3,194.2,287.5,194z"/>
	<path class="st3" d="M330.2,132.8c-0.1-0.1-0.2-0.2-0.1-0.4l0.2,0.2L330.2,132.8z"/>
	<path class="st3" d="M147.7,77c0.1-0.1,0.2-0.1,0.4-0.1C148.1,77.3,147.9,77.2,147.7,77z"/>
	<path class="st4" d="M138.6,154.1c0,0.4-0.2,0.6-0.5,0.7C138,154.4,138.2,154.1,138.6,154.1z"/>
	<path class="st0" d="M166.9,146.7c2.6-2.1,5.8-2.5,8.8-2.8c10.7-1,20.2,1.9,28.2,9.1c7.3,6.5,11.6,14.5,12.5,24.4
		c0.9,9.9-2.1,18.6-7.9,26.6c-5,6.9-12,11-20.1,13c-8.4,2.1-16.8,1.1-24.8-2.6c-6.8-3.2-12.2-7.9-16.1-14.2
		c-5-8.1-6.2-16.9-4.4-26.1c0.6-3,1.2-6,3.5-8.8c1.6,2.3,3.4,4.2,5.5,6c3.9,3.4,10.4,4.4,15.6,1.5c4.9-2.7,7.9-9.1,6.8-14.5
		c-0.7-3.3-2.2-6.2-4.8-8.5C168.9,148.9,167.6,148.4,166.9,146.7z"/>
	<g>
		<path class="st5" d="M71.3,166.9c-0.2,2-0.4,4-0.7,5.9c-0.8,3.6-0.6,7.1-0.2,10.7c0.4,4.4,0.8,8.7,1.4,13.1
			c1.5,11.2,5,21.9,9.9,32c6.5,13.3,15.4,24.9,26.9,34.5c7.8,6.5,15.9,12.3,25.5,16.8c-3.3,10.1-3.1,20.5-1.7,31.1
			c-13,13.1-26,26.1-39.1,39.4c-2.7-2.8-4.6-6-6.6-9.1c-8.3-12.1-16.1-24.5-23.3-37.3c-7.9-14.1-15.4-28.4-21.9-43.2
			c-7.2-16.5-13.3-33.4-17-51.1c-3-14.6-4.1-29.5-2.7-44.4c1-11.2,3.3-22.2,6.8-32.9c4.8-14.9,12-28.6,20.8-41.4
			c5.5-7.9,11.9-15.2,18.8-21.9c11.2-11,23.8-20,37.7-27.2c14.2-7.3,29-12.9,44.9-15.2c1.2-0.2,2.3-0.4,3.5-0.6
			c0.4,0.1,0.8,0.1,1.1-0.2c10.2-2.1,20.6-2.5,31-2c2.7,0.1,5.3,0.4,8,0.6c0.5,0.5,1.1,0.4,1.7,0.2c2.9,0.1,5.8,0.5,8.7,1.2
			c0.5,0.4,1.1,0.3,1.7,0.3c6.3,0.9,12.5,2.4,18.6,4.1c8.6,2.4,16.8,6.1,24.8,9.8c7.1,3.3,13.7,7.6,20.2,11.9
			c12,8,22.3,17.8,31.5,28.8c8.2,9.8,15.2,20.4,20.7,32c3,6.4,5.9,12.8,7.9,19.6c0,0.2,0,0.3,0.1,0.4c3.3,8.7,5,17.7,6.3,26.8
			c1.9,13.3,1.8,26.7,0,40c-1.2,9.2-3.6,18.2-6.2,27.1c-4.9,17-12.2,33.1-19.7,49c-7,14.9-15.4,29.1-23.9,43.2
			c-12.8,21.2-27.1,41.3-42.1,61c-7.9,10.4-16,20.7-24.4,30.6c-12.7,14.9-25.7,29.6-38.8,44.1c-0.5,0.6-1,1.1-1.8,1.9
			c-15.5-17.3-31.1-34.3-45.8-52.6c15.7-16,31.4-31.9,46.8-48.1c13.7,2.4,26.8,0.8,39.1-5.9c12.2-6.7,20.9-16.5,26.3-29.3
			c0.1-0.1,0.2-0.3,0.1-0.5c0.8-2.4,1.6-4.8,2.5-7.3c0.1-0.2,0.2-0.3,0.1-0.5c0.4-3.2,1-6.3,1.2-9.5c0.8-11.1-1.5-21.4-6.7-31.2
			c-0.2-0.4-0.4-0.8-0.6-1.2c8.8-6.9,16.7-14.5,23.4-23.4c7.2-9.5,12.6-19.8,16.6-31c2.5-7,3.8-14.2,5.1-21.4c0.1,0,0.2,0,0.3-0.1
			c0.1-0.2,0.1-0.3-0.2-0.4c0.7-6.7,1.1-13.4,0.6-20.2c-0.8-11-2.9-21.8-7.1-32.1c-3.9-9.3-8.3-18.3-14.5-26.3
			c-6.9-9-14.9-16.7-24.3-23.2c-7.4-5.1-15.2-9.6-23.7-12.7c-12.1-4.4-24.5-7-37.5-7.2c-11.2-0.2-22.1,1.7-32.8,4.6
			c-0.1,0-0.3,0-0.4,0.1c-10.4,3-20.1,7.6-29,13.6c-9.2,6.2-17.3,13.6-24.3,22.3C86.3,123,80.2,134.1,76,146.3
			c-1.4,4-2.3,8.2-3.4,12.3c-0.4,0.2-0.5,0.5-0.2,0.8c-0.2,1.5-0.4,2.9-0.7,4.4c-0.5,0.5-0.3,1.2-0.3,1.8l0,0.2
			C70.7,166.1,70.7,166.5,71.3,166.9z"/>
		<path class="st3" d="M184.9,304c6.6,2.8,13.6,5,20.7,7.6c9.6-9.3,19.1-18.7,28.4-28.6c5.6,10,5.2,29.9-6,44.1
			c-11.3,14.5-32.1,22.6-51.9,15.5c-17,16.7-33.5,34-50.5,51.5c-8.9-10.6-17-21.6-25.7-32.4c14.9-16.3,31-31.1,45.7-47
			c0.1-2.6-0.9-4.7-1.3-6.9c-1.2-6.5-0.9-12.9,0.4-19.4c2.4-12,8.7-21.4,18.6-28.6c5.6-4.1,11.9-6.2,18.7-7.3
			c6.2-1.1,12.4-0.5,18.5,0.8c1.4,0.3,3,0.3,4.1,2.2c-9.1,9.4-18.2,18.7-27.2,28C178.1,287.5,182.6,299.7,184.9,304z"/>
		<g>
			<path class="st5" d="M64.1,555.9c-8,0-14.8-1.6-20.5-4.7c-5.7-3.1-10-7.6-13.1-13.3c-3-5.7-4.6-12.4-4.6-20.2
				c0-5.8,0.9-11,2.6-15.7c1.7-4.7,4.2-8.6,7.5-12c3.3-3.3,7.3-5.9,12-7.7c4.7-1.8,10.1-2.7,16-2.7c3.5,0,7.1,0.4,10.7,1.3
				c3.6,0.9,6.7,2.1,9.4,3.7c1.7,1,2.9,2.2,3.6,3.7c0.6,1.5,0.8,2.9,0.6,4.4c-0.2,1.5-0.8,2.7-1.8,3.8c-0.9,1.1-2.1,1.7-3.5,2
				c-1.4,0.3-3,0-4.7-0.9c-2.1-1.3-4.3-2.2-6.6-2.7c-2.3-0.6-4.7-0.8-7-0.8c-4.7,0-8.6,0.9-11.8,2.8c-3.2,1.9-5.6,4.5-7.2,8
				c-1.6,3.5-2.4,7.8-2.4,12.9c0,5,0.8,9.3,2.4,12.9c1.6,3.6,4,6.3,7.2,8.1c3.2,1.9,7.1,2.8,11.8,2.8c2.2,0,4.5-0.3,6.9-0.8
				c2.3-0.6,4.6-1.4,6.8-2.6c1.8-0.9,3.4-1.2,4.9-1c1.4,0.2,2.6,0.9,3.6,1.9c0.9,1,1.5,2.2,1.8,3.6c0.2,1.4,0.1,2.8-0.5,4.2
				c-0.6,1.4-1.6,2.6-3.2,3.6c-2.6,1.8-5.8,3.1-9.6,4.1C71.5,555.4,67.8,555.9,64.1,555.9z"/>
			<path class="st5" d="M106.6,493.7c-2.9,0-5.2-0.7-6.8-2c-1.6-1.4-2.4-3.3-2.4-5.8c0-2.6,0.8-4.6,2.4-5.9c1.6-1.4,3.8-2,6.8-2
				c2.9,0,5.2,0.7,6.7,2c1.5,1.4,2.3,3.3,2.3,5.9c0,2.5-0.8,4.5-2.3,5.8C111.8,493.1,109.5,493.7,106.6,493.7z M106.6,555.6
				c-2.6,0-4.6-0.8-5.9-2.3c-1.4-1.5-2-3.6-2-6.4v-35.9c0-2.8,0.7-5,2-6.5c1.4-1.5,3.3-2.3,5.9-2.3c2.5,0,4.5,0.8,5.8,2.3
				c1.4,1.5,2,3.7,2,6.5V547c0,2.7-0.7,4.8-2,6.4C111.1,554.8,109.2,555.6,106.6,555.6z"/>
			<path class="st5" d="M152.1,555.9c-4.8,0-8.9-0.8-12.1-2.4s-5.7-4-7.2-7c-1.6-3.1-2.4-7-2.4-11.7V515h-4.4c-2,0-3.5-0.5-4.6-1.6
				c-1.1-1.1-1.6-2.5-1.6-4.3c0-2,0.5-3.4,1.6-4.5c1.1-1,2.6-1.5,4.6-1.5h4.4v-8c0-2.7,0.7-4.7,2.1-6c1.4-1.4,3.4-2,5.9-2
				c2.6,0,4.5,0.7,5.9,2c1.3,1.4,2,3.4,2,6v8h10c2,0,3.5,0.5,4.5,1.5c1.1,1,1.6,2.5,1.6,4.5c0,1.8-0.5,3.3-1.6,4.3
				c-1.1,1-2.6,1.6-4.5,1.6h-10v19.1c0,2.9,0.7,5.1,2,6.6c1.4,1.5,3.6,2.2,6.6,2.2c1.1,0,2-0.1,2.9-0.3c0.9-0.2,1.7-0.3,2.5-0.4
				c1-0.1,1.8,0.2,2.4,0.9c0.6,0.7,0.9,2.1,0.9,4.4c0,1.7-0.3,3.1-0.8,4.4c-0.6,1.3-1.5,2.2-2.9,2.7c-0.9,0.3-2.2,0.6-3.7,0.9
				C154.5,555.8,153.2,555.9,152.1,555.9z"/>
			<path class="st3" d="M178.7,493.7c-2.9,0-5.2-0.7-6.8-2c-1.6-1.4-2.4-3.3-2.4-5.8c0-2.6,0.8-4.6,2.4-5.9c1.6-1.4,3.8-2,6.8-2
				s5.2,0.7,6.7,2c1.5,1.4,2.3,3.3,2.3,5.9c0,2.5-0.8,4.5-2.3,5.8C183.9,493.1,181.7,493.7,178.7,493.7z M178.7,555.6
				c-2.6,0-4.6-0.8-5.9-2.3c-1.4-1.5-2-3.6-2-6.4v-35.9c0-2.8,0.7-5,2-6.5c1.4-1.5,3.3-2.3,5.9-2.3c2.5,0,4.5,0.8,5.8,2.3
				c1.4,1.5,2,3.7,2,6.5V547c0,2.7-0.7,4.8-2,6.4C183.3,554.8,181.3,555.6,178.7,555.6z"/>
			<path class="st0" d="M208.5,555.7c-2.7,0-4.7-0.7-6.1-2.2c-1.4-1.5-2.2-3.6-2.2-6.4v-57.9c0-2.7,0.7-4.8,2.2-6.3
				c1.5-1.5,3.6-2.2,6.3-2.2h35.9c2.1,0,3.7,0.5,4.8,1.6c1.1,1.1,1.6,2.6,1.6,4.7c0,2.1-0.5,3.7-1.6,4.8c-1.1,1.1-2.7,1.6-4.8,1.6
				h-28.1v18.1h25.8c2.1,0,3.7,0.5,4.8,1.6c1.1,1.1,1.7,2.6,1.7,4.7c0,2-0.6,3.6-1.7,4.7c-1.1,1.1-2.7,1.7-4.8,1.7h-25.8v22.9
				C216.5,552.8,213.9,555.7,208.5,555.7z"/>
			<path class="st0" d="M270.9,493.7c-2.9,0-5.2-0.7-6.8-2c-1.6-1.4-2.4-3.3-2.4-5.8c0-2.6,0.8-4.6,2.4-5.9c1.6-1.4,3.8-2,6.8-2
				c2.9,0,5.2,0.7,6.7,2c1.5,1.4,2.3,3.3,2.3,5.9c0,2.5-0.8,4.5-2.3,5.8C276.1,493.1,273.9,493.7,270.9,493.7z M270.9,555.6
				c-2.6,0-4.6-0.8-5.9-2.3c-1.4-1.5-2-3.6-2-6.4v-35.9c0-2.8,0.7-5,2-6.5c1.4-1.5,3.3-2.3,5.9-2.3c2.5,0,4.5,0.8,5.8,2.3
				c1.4,1.5,2,3.7,2,6.5V547c0,2.7-0.7,4.8-2,6.4C275.5,554.8,273.5,555.6,270.9,555.6z"/>
			<path class="st0" d="M296.5,555.5c-2,0-3.5-0.5-4.7-1.6c-1.2-1.1-1.8-2.5-1.8-4.1c0-1.7,0.6-3.4,2-5.1l16.3-20v7.1l-15.1-18.5
				c-1.5-1.8-2.2-3.6-2.1-5.2c0.1-1.7,0.7-3,1.9-4.1c1.2-1,2.8-1.6,4.7-1.6c1.9,0,3.5,0.3,4.7,0.9c1.3,0.6,2.4,1.7,3.6,3.1
				l11.2,14.4h-5.6l11.2-14.4c1.2-1.5,2.4-2.5,3.7-3.1c1.3-0.6,2.8-0.9,4.6-0.9c2,0,3.5,0.5,4.7,1.6c1.2,1.1,1.8,2.5,1.8,4.1
				c0,1.7-0.7,3.4-2.2,5.1l-15.1,18.5v-7.1l16.4,20c1.5,1.7,2.2,3.4,2.1,5c-0.1,1.7-0.7,3.1-1.9,4.2c-1.2,1.1-2.8,1.7-4.8,1.7
				c-1.9,0-3.4-0.3-4.7-1c-1.2-0.7-2.4-1.7-3.6-3.1l-12.3-15.6h5.4l-12.3,15.6c-1.1,1.3-2.3,2.3-3.5,3
				C300,555.1,298.4,555.5,296.5,555.5z"/>
		</g>
	</g>
	<circle class="st1" cx="225.9" cy="135.7" r="9.3"/>
</g>
</svg>
