<svg width="35" height="34" viewBox="0 0 35 34" fill="none" xmlns="http://www.w3.org/2000/svg">
<rect width="35" height="33.5" rx="5" fill="#E4E9F0"/>
<path d="M17.8101 12.3101C16.9201 12.3101 16.0501 12.574 15.31 13.0685C14.57 13.563 13.9932 14.2658 13.6526 15.088C13.312 15.9103 13.2229 16.8151 13.3966 17.688C13.5702 18.5609 13.9988 19.3627 14.6281 19.9921C15.2575 20.6214 16.0593 21.05 16.9322 21.2236C17.8051 21.3973 18.7099 21.3082 19.5322 20.9676C20.3544 20.627 21.0572 20.0502 21.5517 19.3102C22.0462 18.5701 22.3101 17.7001 22.3101 16.8101C22.3089 15.617 21.8344 14.4731 20.9907 13.6295C20.1471 12.7858 19.0032 12.3113 17.8101 12.3101ZM17.8101 19.8101C17.2168 19.8101 16.6367 19.6342 16.1434 19.3045C15.65 18.9749 15.2655 18.5063 15.0385 17.9582C14.8114 17.41 14.752 16.8068 14.8677 16.2248C14.9835 15.6429 15.2692 15.1083 15.6888 14.6888C16.1083 14.2692 16.6429 13.9835 17.2248 13.8677C17.8068 13.752 18.41 13.8114 18.9582 14.0385C19.5063 14.2655 19.9749 14.65 20.3045 15.1434C20.6342 15.6367 20.8101 16.2168 20.8101 16.8101C20.8101 17.6058 20.494 18.3688 19.9314 18.9314C19.3688 19.494 18.6058 19.8101 17.8101 19.8101ZM26.0601 17.0126C26.0639 16.8776 26.0639 16.7426 26.0601 16.6076L27.4589 14.8601C27.5322 14.7683 27.583 14.6607 27.6071 14.5457C27.6312 14.4307 27.6279 14.3117 27.5976 14.1982C27.3683 13.3363 27.0253 12.5087 26.5776 11.7373C26.519 11.6363 26.4376 11.5505 26.34 11.4865C26.2423 11.4225 26.1311 11.3823 26.0151 11.3689L23.7914 11.1214C23.6989 11.0239 23.6051 10.9301 23.5101 10.8401L23.2476 8.61073C23.2341 8.49468 23.1937 8.38338 23.1295 8.28572C23.0654 8.18806 22.9794 8.10674 22.8782 8.04823C22.1065 7.60136 21.279 7.2587 20.4173 7.02916C20.3037 6.99897 20.1847 6.99589 20.0697 7.02015C19.9547 7.04441 19.8471 7.09535 19.7554 7.16885L18.0126 8.5601C17.8776 8.5601 17.7426 8.5601 17.6076 8.5601L15.8601 7.16416C15.7683 7.09082 15.6607 7.04006 15.5457 7.01596C15.4307 6.99186 15.3117 6.9951 15.1982 7.02541C14.3364 7.25513 13.5089 7.59812 12.7373 8.04541C12.6363 8.10403 12.5505 8.18541 12.4865 8.28306C12.4225 8.38071 12.3823 8.49195 12.3689 8.60791L12.1214 10.8354C12.0239 10.9285 11.9301 11.0223 11.8401 11.1167L9.61073 11.3726C9.49468 11.3861 9.38338 11.4265 9.28572 11.4907C9.18806 11.5548 9.10674 11.6409 9.04823 11.742C8.60136 12.5137 8.2587 13.3412 8.02916 14.2029C7.99897 14.3165 7.99589 14.4355 8.02015 14.5505C8.04441 14.6655 8.09535 14.7731 8.16885 14.8648L9.5601 16.6076C9.5601 16.7426 9.5601 16.8776 9.5601 17.0126L8.16416 18.7601C8.09082 18.8519 8.04006 18.9595 8.01596 19.0745C7.99186 19.1895 7.9951 19.3085 8.02541 19.422C8.25472 20.2839 8.59773 21.1115 9.04541 21.8829C9.10403 21.9839 9.18541 22.0697 9.28306 22.1337C9.38071 22.1977 9.49195 22.238 9.60791 22.2514L11.8317 22.4989C11.9248 22.5964 12.0185 22.6901 12.1129 22.7801L12.3726 25.0095C12.3861 25.1255 12.4265 25.2368 12.4907 25.3345C12.5548 25.4321 12.6409 25.5135 12.742 25.572C13.5137 26.0188 14.3412 26.3615 15.2029 26.591C15.3165 26.6212 15.4355 26.6243 15.5505 26.6001C15.6655 26.5758 15.7731 26.5249 15.8648 26.4514L17.6076 25.0601C17.7426 25.0639 17.8776 25.0639 18.0126 25.0601L19.7601 26.4589C19.8519 26.5322 19.9595 26.583 20.0745 26.6071C20.1895 26.6312 20.3085 26.6279 20.422 26.5976C21.2839 26.3683 22.1115 26.0253 22.8829 25.5776C22.9839 25.519 23.0697 25.4376 23.1337 25.34C23.1977 25.2423 23.238 25.1311 23.2514 25.0151L23.4989 22.7914C23.5964 22.6989 23.6901 22.6051 23.7801 22.5101L26.0095 22.2476C26.1255 22.2341 26.2368 22.1937 26.3345 22.1295C26.4321 22.0654 26.5135 21.9794 26.572 21.8782C27.0188 21.1065 27.3615 20.279 27.591 19.4173C27.6212 19.3037 27.6243 19.1847 27.6001 19.0697C27.5758 18.9547 27.5249 18.8471 27.4514 18.7554L26.0601 17.0126ZM24.5507 16.4032C24.5667 16.6742 24.5667 16.946 24.5507 17.217C24.5396 17.4025 24.5977 17.5856 24.7139 17.7307L26.0442 19.3929C25.8915 19.878 25.6961 20.3486 25.4601 20.7992L23.3414 21.0392C23.1568 21.0596 22.9865 21.1478 22.8632 21.2867C22.6828 21.4896 22.4906 21.6818 22.2876 21.8623C22.1488 21.9855 22.0606 22.1559 22.0401 22.3404L21.8048 24.4573C21.3543 24.6934 20.8837 24.8888 20.3985 25.0414L18.7354 23.711C18.6023 23.6047 18.437 23.5468 18.2667 23.547H18.2217C17.9506 23.5629 17.6789 23.5629 17.4079 23.547C17.2224 23.5358 17.0393 23.5939 16.8942 23.7101L15.2273 25.0414C14.7422 24.8887 14.2716 24.6932 13.821 24.4573L13.581 22.3414C13.5606 22.1568 13.4724 21.9865 13.3335 21.8632C13.1306 21.6828 12.9384 21.4906 12.7579 21.2876C12.6347 21.1488 12.4643 21.0606 12.2798 21.0401L10.1629 20.8039C9.92684 20.3534 9.73138 19.8828 9.57885 19.3976L10.9092 17.7345C11.0253 17.5894 11.0835 17.4063 11.0723 17.2207C11.0564 16.9497 11.0564 16.678 11.0723 16.407C11.0835 16.2214 11.0253 16.0383 10.9092 15.8932L9.57885 14.2273C9.7315 13.7422 9.92696 13.2716 10.1629 12.821L12.2789 12.581C12.4634 12.5606 12.6337 12.4724 12.757 12.3335C12.9374 12.1306 13.1296 11.9384 13.3326 11.7579C13.472 11.6346 13.5605 11.4638 13.581 11.2789L13.8164 9.16291C14.2668 8.92684 14.7374 8.73138 15.2226 8.57885L16.8857 9.90916C17.0308 10.0253 17.2139 10.0835 17.3995 10.0723C17.6705 10.0564 17.9422 10.0564 18.2132 10.0723C18.3988 10.0835 18.5819 10.0253 18.727 9.90916L20.3929 8.57885C20.878 8.7315 21.3486 8.92696 21.7992 9.16291L22.0392 11.2789C22.0596 11.4634 22.1478 11.6337 22.2867 11.757C22.4896 11.9374 22.6818 12.1296 22.8623 12.3326C22.9855 12.4714 23.1559 12.5596 23.3404 12.5801L25.4573 12.8154C25.6934 13.2659 25.8888 13.7365 26.0414 14.2217L24.711 15.8848C24.5938 16.0311 24.5356 16.2161 24.5479 16.4032H24.5507Z" fill="#003366"/>
</svg>
