<svg width="35" height="33" viewBox="0 0 35 33" fill="none" xmlns="http://www.w3.org/2000/svg">
<rect width="35" height="32.7501" rx="5" fill="#E4E9F0"/>
<path d="M26.9203 24.6644L21.6703 14.1644C21.608 14.0398 21.5123 13.9351 21.3938 13.8619C21.2753 13.7886 21.1388 13.7499 20.9995 13.7499C20.8603 13.7499 20.7237 13.7886 20.6053 13.8619C20.4868 13.9351 20.391 14.0398 20.3287 14.1644L18.2934 18.2359C16.6981 18.1462 15.1631 17.5952 13.875 16.6497C15.3863 15.0357 16.302 12.9546 16.4709 10.75H18.75C18.9489 10.75 19.1397 10.671 19.2803 10.5303C19.421 10.3897 19.5 10.1989 19.5 10C19.5 9.80109 19.421 9.61032 19.2803 9.46967C19.1397 9.32902 18.9489 9.25 18.75 9.25H13.5V7.75C13.5 7.55109 13.421 7.36032 13.2803 7.21967C13.1397 7.07902 12.9489 7 12.75 7C12.5511 7 12.3603 7.07902 12.2197 7.21967C12.079 7.36032 12 7.55109 12 7.75V9.25H6.75C6.55109 9.25 6.36032 9.32902 6.21967 9.46967C6.07902 9.61032 6 9.80109 6 10C6 10.1989 6.07902 10.3897 6.21967 10.5303C6.36032 10.671 6.55109 10.75 6.75 10.75H14.9653C14.7983 12.5881 14.018 14.3167 12.75 15.6578C11.9598 14.8241 11.3531 13.8341 10.9688 12.7516C10.9371 12.6571 10.8871 12.5699 10.8214 12.495C10.7557 12.4202 10.6758 12.3591 10.5863 12.3154C10.4968 12.2718 10.3995 12.2464 10.3 12.2407C10.2006 12.2351 10.101 12.2493 10.0072 12.2826C9.91327 12.3158 9.82695 12.3674 9.75323 12.4344C9.67951 12.5013 9.61987 12.5823 9.57778 12.6726C9.53569 12.7628 9.51199 12.8606 9.50808 12.9601C9.50417 13.0596 9.52012 13.1589 9.555 13.2522C10.0024 14.5177 10.7073 15.6767 11.625 16.6562C10.212 17.6946 8.50353 18.2531 6.75 18.25C6.55109 18.25 6.36032 18.329 6.21967 18.4697C6.07902 18.6103 6 18.8011 6 19C6 19.1989 6.07902 19.3897 6.21967 19.5303C6.36032 19.671 6.55109 19.75 6.75 19.75C8.92555 19.7524 11.0387 19.0234 12.75 17.68C14.1465 18.7711 15.8135 19.4617 17.5725 19.6778L15.0787 24.6644C15.0347 24.7525 15.0084 24.8484 15.0014 24.9466C14.9944 25.0449 15.0068 25.1435 15.0379 25.237C15.1007 25.4257 15.236 25.5818 15.4139 25.6708C15.5918 25.7598 15.7978 25.7745 15.9865 25.7116C16.1753 25.6488 16.3313 25.5135 16.4203 25.3356L17.7131 22.75H24.2859L25.5788 25.3356C25.6411 25.4602 25.7369 25.565 25.8555 25.6382C25.9741 25.7114 26.1107 25.7501 26.25 25.75C26.3778 25.7499 26.5035 25.7172 26.6151 25.6549C26.7268 25.5926 26.8206 25.5028 26.8878 25.394C26.9549 25.2853 26.9932 25.1611 26.9989 25.0334C27.0046 24.9057 26.9775 24.7787 26.9203 24.6644ZM18.4631 21.25L21 16.1772L23.5359 21.25H18.4631Z" fill="#003366"/>
</svg>
