<svg width="35" height="34" viewBox="0 0 35 34" fill="none" xmlns="http://www.w3.org/2000/svg">
<rect width="35" height="33.5" rx="5" fill="#E4E9F0"/>
<path d="M24 13.25C24 15.9228 21.7059 18.1353 18.75 18.4587V19.25C18.75 19.4489 18.671 19.6397 18.5303 19.7803C18.3897 19.921 18.1989 20 18 20C17.8011 20 17.6103 19.921 17.4697 19.7803C17.329 19.6397 17.25 19.4489 17.25 19.25V17.75C17.25 17.5511 17.329 17.3603 17.4697 17.2197C17.6103 17.079 17.8011 17 18 17C20.4816 17 22.5 15.3181 22.5 13.25C22.5 11.1819 20.4816 9.5 18 9.5C15.5184 9.5 13.5 11.1819 13.5 13.25C13.5 13.4489 13.421 13.6397 13.2803 13.7803C13.1397 13.921 12.9489 14 12.75 14C12.5511 14 12.3603 13.921 12.2197 13.7803C12.079 13.6397 12 13.4489 12 13.25C12 10.355 14.6916 8 18 8C21.3084 8 24 10.355 24 13.25ZM18 22.25C17.7033 22.25 17.4133 22.338 17.1666 22.5028C16.92 22.6676 16.7277 22.9019 16.6142 23.176C16.5006 23.4501 16.4709 23.7517 16.5288 24.0426C16.5867 24.3336 16.7296 24.6009 16.9393 24.8107C17.1491 25.0204 17.4164 25.1633 17.7074 25.2212C17.9983 25.2791 18.2999 25.2494 18.574 25.1358C18.8481 25.0223 19.0824 24.83 19.2472 24.5834C19.412 24.3367 19.5 24.0467 19.5 23.75C19.5 23.3522 19.342 22.9706 19.0607 22.6893C18.7794 22.408 18.3978 22.25 18 22.25Z" fill="#003366"/>
</svg>
