<svg width="35" height="34" viewBox="0 0 35 34" fill="none" xmlns="http://www.w3.org/2000/svg">
<rect width="35" height="33.5" rx="5" fill="#E4E9F0"/>
<path d="M13.2991 23.35C13.3779 23.4092 13.4676 23.4524 13.5631 23.4769C13.6586 23.5014 13.758 23.5069 13.8556 23.4929C13.9532 23.479 14.0472 23.446 14.132 23.3957C14.2168 23.3454 14.2909 23.2789 14.35 23.2C14.8041 22.5945 15.3929 22.1031 16.0698 21.7647C16.7468 21.4262 17.4932 21.25 18.25 21.25C19.0068 21.25 19.7532 21.4262 20.4302 21.7647C21.1071 22.1031 21.6959 22.5945 22.15 23.2C22.2091 23.2788 22.2831 23.3452 22.3679 23.3954C22.4526 23.4455 22.5464 23.4785 22.6439 23.4925C22.7414 23.5064 22.8407 23.501 22.9361 23.4765C23.0315 23.4521 23.1212 23.4091 23.2 23.35C23.2788 23.2909 23.3452 23.2169 23.3954 23.1321C23.4455 23.0474 23.4785 22.9536 23.4925 22.8561C23.5064 22.7586 23.501 22.6593 23.4765 22.5639C23.4521 22.4685 23.4091 22.3788 23.35 22.3C22.6859 21.4096 21.8003 20.7086 20.7812 20.2666C21.3397 19.7567 21.731 19.0899 21.9037 18.3537C22.0764 17.6175 22.0225 16.8462 21.7491 16.1412C21.4756 15.4362 20.9954 14.8303 20.3715 14.403C19.7476 13.9758 19.009 13.7472 18.2528 13.7472C17.4966 13.7472 16.7581 13.9758 16.1341 14.403C15.5102 14.8303 15.03 15.4362 14.7565 16.1412C14.4831 16.8462 14.4292 17.6175 14.6019 18.3537C14.7747 19.0899 15.1659 19.7567 15.7244 20.2666C14.7033 20.7077 13.8157 21.4088 13.15 22.3C13.0306 22.459 12.9792 22.659 13.0071 22.8559C13.0351 23.0528 13.1401 23.2305 13.2991 23.35ZM18.25 15.25C18.695 15.25 19.13 15.382 19.5 15.6292C19.87 15.8764 20.1584 16.2278 20.3287 16.639C20.499 17.0501 20.5436 17.5025 20.4568 17.939C20.37 18.3754 20.1557 18.7763 19.841 19.091C19.5263 19.4057 19.1254 19.62 18.689 19.7068C18.2525 19.7936 17.8001 19.749 17.389 19.5787C16.9778 19.4084 16.6264 19.12 16.3792 18.75C16.132 18.38 16 17.945 16 17.5C16 16.9033 16.2371 16.331 16.659 15.909C17.081 15.4871 17.6533 15.25 18.25 15.25ZM25 7H11.5C11.1022 7 10.7206 7.15804 10.4393 7.43934C10.158 7.72064 10 8.10218 10 8.5V25C10 25.3978 10.158 25.7794 10.4393 26.0607C10.7206 26.342 11.1022 26.5 11.5 26.5H25C25.3978 26.5 25.7794 26.342 26.0607 26.0607C26.342 25.7794 26.5 25.3978 26.5 25V8.5C26.5 8.10218 26.342 7.72064 26.0607 7.43934C25.7794 7.15804 25.3978 7 25 7ZM25 25H11.5V8.5H25V25ZM14.5 10.75C14.5 10.5511 14.579 10.3603 14.7197 10.2197C14.8603 10.079 15.0511 10 15.25 10H21.25C21.4489 10 21.6397 10.079 21.7803 10.2197C21.921 10.3603 22 10.5511 22 10.75C22 10.9489 21.921 11.1397 21.7803 11.2803C21.6397 11.421 21.4489 11.5 21.25 11.5H15.25C15.0511 11.5 14.8603 11.421 14.7197 11.2803C14.579 11.1397 14.5 10.9489 14.5 10.75Z" fill="#003366"/>
</svg>
