<svg width="47" height="40" viewBox="0 0 47 40" fill="none" xmlns="http://www.w3.org/2000/svg">
<path d="M41.5769 5.21739H35.3133L32.7644 1.54783C32.4348 1.07257 31.9887 0.682744 31.4653 0.412787C30.9419 0.14283 30.3575 0.00105779 29.7637 0H17.2363C16.6425 0.00105779 16.0581 0.14283 15.5347 0.412787C15.0113 0.682744 14.5652 1.07257 14.2356 1.54783L11.6867 5.21739H5.42308C3.98479 5.21739 2.60541 5.76708 1.58838 6.74553C0.571358 7.72398 0 9.05104 0 10.4348V34.7826C0 36.1663 0.571358 37.4934 1.58838 38.4719C2.60541 39.4503 3.98479 40 5.42308 40H41.5769C43.0152 40 44.3946 39.4503 45.4116 38.4719C46.4286 37.4934 47 36.1663 47 34.7826V10.4348C47 9.05104 46.4286 7.72398 45.4116 6.74553C44.3946 5.76708 43.0152 5.21739 41.5769 5.21739ZM30.7308 24.3478H25.3077V29.5652C25.3077 30.0265 25.1172 30.4688 24.7782 30.795C24.4392 31.1211 23.9794 31.3043 23.5 31.3043C23.0206 31.3043 22.5608 31.1211 22.2218 30.795C21.8828 30.4688 21.6923 30.0265 21.6923 29.5652V24.3478H16.2692C15.7898 24.3478 15.33 24.1646 14.991 23.8384C14.652 23.5123 14.4615 23.0699 14.4615 22.6087C14.4615 22.1474 14.652 21.7051 14.991 21.3789C15.33 21.0528 15.7898 20.8696 16.2692 20.8696H21.6923V15.6522C21.6923 15.1909 21.8828 14.7486 22.2218 14.4224C22.5608 14.0963 23.0206 13.913 23.5 13.913C23.9794 13.913 24.4392 14.0963 24.7782 14.4224C25.1172 14.7486 25.3077 15.1909 25.3077 15.6522V20.8696H30.7308C31.2102 20.8696 31.67 21.0528 32.009 21.3789C32.348 21.7051 32.5385 22.1474 32.5385 22.6087C32.5385 23.0699 32.348 23.5123 32.009 23.8384C31.67 24.1646 31.2102 24.3478 30.7308 24.3478Z" fill="#003366"/>
</svg>
