<svg width="32" height="32" viewBox="0 0 32 32" fill="none" xmlns="http://www.w3.org/2000/svg">
<rect width="32" height="32" rx="8" fill="#003366"/>
<path d="M8.5 23.9168V12.2502H13.5V10.5835L16 8.0835L18.5 10.5835V15.5835H23.5V23.9168H8.5V23.9168M10.1667 22.2502H11.8333V20.5835H10.1667V22.2502V22.2502M10.1667 18.9168H11.8333V17.2502H10.1667V18.9168V18.9168M10.1667 15.5835H11.8333V13.9168H10.1667V15.5835V15.5835M15.1667 22.2502H16.8333V20.5835H15.1667V22.2502V22.2502M15.1667 18.9168H16.8333V17.2502H15.1667V18.9168V18.9168M15.1667 15.5835H16.8333V13.9168H15.1667V15.5835V15.5835M15.1667 12.2502H16.8333V10.5835H15.1667V12.2502V12.2502M20.1667 22.2502H21.8333V20.5835H20.1667V22.2502V22.2502M20.1667 18.9168H21.8333V17.2502H20.1667V18.9168V18.9168" fill="white"/>
</svg>
