<?xml version="1.0" encoding="utf-8"?>
<svg version="1.1" id="Layer_1" xmlns="http://www.w3.org/2000/svg" xmlns:xlink="http://www.w3.org/1999/xlink" x="0px" y="0px"
     viewBox="0 0 204.4 273.5" style="enable-background:new 0 0 204.4 273.5;" xml:space="preserve">
<g>
    <path fill="#EF8627" d="M70.7,139.9c-0.1-0.1-0.1-0.1-0.2-0.1c-0.3-1-1.3-1.3-2.1-2c-5.4-4.9-9.7-10.6-12.3-17.4
        c-2.3-6-3.8-12.2-3.9-18.6c-0.1-2.7,0.1-5.4,0.5-8.1c0.4-2.5,0.7-5,1.6-7.3c1-2.7,2.1-5.4,3.4-8c1.8-3.4,3.9-6.5,6.4-9.4
        c2.6-3.1,5.6-5.9,9-8.2c3.8-2.5,7.7-4.7,12-6.2c3.8-1.3,7.7-2.2,11.7-2.6c5.1-0.5,10.2-0.4,15.1,0.7c5.6,1.2,10.9,3,15.8,6.1
        c3.5,2.2,6.9,4.5,9.9,7.5c3.9,3.9,7,8.3,9.3,13.2c1.5,3.1,2.6,6.5,3.4,9.8c1,3.8,1.7,7.6,1.6,11.4c0,2.4-0.4,4.8-0.6,7.3
        c-0.5,5.2-2.3,10-4.5,14.7c-1.1,2.2-2.3,4.5-3.5,6.7v0.1c-0.2,0.2-0.4,0.3-0.6,0.5c-2.8,3.9-6.1,7.3-9.9,10.3
        c-1.2,1-2.2,2.2-3.8,2.6c-16.5-10.1-31.9-8.8-46.7,3.8c-2-0.5-4-1.6-5.9-2.7C74.4,142.7,72.7,141.1,70.7,139.9z M77.4,84.7
        c-0.2,0-0.4,0.2-0.3,0.4L77,85.2c-0.7,0.5-1,1.1-1.3,1.8c-1.4,3.1-2.5,6.3-3.1,9.7c-0.8,5-0.3,9.9,1.6,14.6c1.9,4.9,5,9.1,9,12.5
        c1,0.9,2.1,2,3.6,2.1l0,0c0,0.5,0.3,0.7,0.7,0.8c1.5,0.7,2.9,1.4,4.4,2c2.8,1.1,5.6,1.9,8.6,1.8c0.7,0,1.3,0.1,1.9,0.1
        c1.8,0.1,3.5,0.2,5.2-0.4c1.8-0.6,3.7-1.1,5.5-1.8c2.8-1,5.3-2.6,7.5-4.4c3.1-2.4,5.6-5.4,7.5-9c2-3.9,3.2-8,3.6-12.3
        c0.5-5.9-1.1-11.4-3.8-16.5c-0.2-0.4-0.4-0.7-0.8-0.8l0,0c0.1-0.5-0.2-0.9-0.5-1.2c-1.8-2.7-3.9-5.1-6.5-7c-1.7-1.2-3.3-2.7-5.5-3
        c-0.2-0.5-0.7-0.4-1.1-0.4c-0.1-0.2-0.1-0.6-0.4-0.6c-1.1,0-2.1-0.6-3.1-0.9c-4.7-1.2-9.4-1.1-14-0.4c-2.5,0.4-5,1.3-7.1,2.7l0,0
        c-0.6-0.2-1,0.2-1.4,0.5c-3.8,2.1-6.7,5.1-9.4,8.3C77.6,83.8,77.3,84.2,77.4,84.7L77.4,84.7z M127,77L127,77c0,0.8,0.7,1,1.2,1
        c1.8,0.2,3.5,0.5,5.1-0.5c0.3-0.4,0.7-0.8,1-1.3c0.9-1.2,1.2-2.5,0.8-4c-0.9-3.8-4.1-4.8-7.4-3.6c-1.7,0.7-2.6,2.2-2.5,3.9
        C125.2,74.3,125.1,76.1,127,77z"/>

    <circle fill="#FFFFFF" cx="102.1" cy="101.4" r="30.6"/>
    <path fill="#1A6CAE" d="M36.1,102.6c-0.2-2.2-0.4-4.4,0.1-6.5C36.3,98.2,36.3,100.4,36.1,102.6z"/>
    
    <path fill="#5AA552" d="M36.7,91.7c0-0.4-0.1-0.8,0.2-1.1C37.1,91,37,91.4,36.7,91.7z"/>
    <path fill="#5AA552" d="M36.7,92.5c-0.4-0.2-0.4-0.5,0.1-0.7C36.7,92,36.7,92.2,36.7,92.5z"/>
    <path fill="#5AA552" d="M143.9,180.4c0.1,0.1,0.1,0.2-0.1,0.3C143.7,180.6,143.7,180.5,143.9,180.4z"/>
    <path fill="#5AA552" d="M142.3,185.1c0.1,0.1,0,0.2-0.1,0.3C142.2,185.4,142.2,185.3,142.3,185.1C142.2,185.1,142.3,185.1,142.3,185.1z"/>
    <path fill="#5AA552" d="M37.3,88c-0.2-0.2-0.1-0.4,0.1-0.5C37.4,87.6,37.3,87.8,37.3,88z"/>
    <path fill="#5AA552" d="M167.5,108.9c0.2,0.1,0.2,0.1,0.1,0.2c-0.1,0.1-0.1,0.1-0.2,0.1C167.3,109.1,167.3,109,167.5,108.9z"/>
    <path fill="#5AA552" d="M193.3,71.8c-0.1-0.1-0.1-0.1-0.1-0.2l0.1,0.1L193.3,71.8z"/>
    <path fill="#5AA552" d="M82.9,38.1C83,38,83,38,83.1,38C83.1,38.3,83,38.2,82.9,38.1z"/>

    <path fill="#F8E8C8" d="M77.4,84.7c0,0.2-0.1,0.4-0.3,0.4C77,84.9,77.1,84.7,77.4,84.7z"/>
    
    <path fill="#EF8627" d="M94.5,80.2c1.6-1.3,3.5-1.5,5.3-1.7c6.5-0.6,12.2,1.1,17.1,5.5c4.4,3.9,7,8.8,7.6,14.8
        c0.5,6-1.3,11.3-4.8,16.1c-3,4.2-7.3,6.7-12.2,7.9c-5.1,1.3-10.2,0.7-15-1.6c-4.1-1.9-7.4-4.8-9.7-8.6c-3-4.9-3.8-10.2-2.7-15.8
        c0.4-1.8,0.7-3.6,2.1-5.3c1,1.4,2.1,2.5,3.3,3.6c2.4,2.1,6.3,2.7,9.4,0.9c3-1.6,4.8-5.5,4.1-8.8c-0.4-2-1.3-3.8-2.9-5.1
        C95.7,81.6,94.9,81.3,94.5,80.2z"/>

    <path fill="#1B3B69" d="M36.7,92.5c-0.1,1.2-0.2,2.4-0.4,3.6c-0.5,2.2-0.4,4.3-0.1,6.5c0.2,2.7,0.5,5.3,0.8,7.9c0.9,6.8,3,13.2,6,19.4
        c3.9,8,9.3,15.1,16.3,20.9c4.7,3.9,9.6,7.4,15.4,10.2c-2,6.1-1.9,12.4-1,18.8c-7.9,7.9-15.7,15.8-23.7,23.8c-1.6-1.7-2.8-3.6-4-5.5
        c-5-7.3-9.7-14.8-14.1-22.6c-4.8-8.5-9.3-17.2-13.2-26.1c-4.4-10-8-20.2-10.3-30.9c-1.8-8.8-2.5-17.8-1.6-26.9
        c0.6-6.8,2-13.4,4.1-19.9c2.9-9,7.3-17.3,12.6-25c3.3-4.8,7.2-9.2,11.4-13.2c6.8-6.7,14.4-12.1,22.8-16.5
        c8.6-4.4,17.5-7.8,27.2-9.2c0.7-0.1,1.4-0.2,2.1-0.4c0.2,0.1,0.5,0.1,0.7-0.1C93.7,5.9,100,5.7,106.3,6c1.6,0.1,3.2,0.2,4.8,0.4
        c0.3,0.3,0.7,0.2,1,0.1c1.8,0.1,3.5,0.3,5.3,0.7c0.3,0.2,0.7,0.2,1,0.2c3.8,0.5,7.6,1.5,11.3,2.5c5.2,1.5,10.2,3.7,15,5.9
        c4.3,2,8.3,4.6,12.2,7.2c7.3,4.8,13.5,10.8,19.1,17.4c5,5.9,9.2,12.3,12.5,19.4c1.8,3.9,3.6,7.7,4.8,11.9c0,0.1,0,0.2,0.1,0.2
        c2,5.3,3,10.7,3.8,16.2c1.1,8,1.1,16.2,0,24.2c-0.7,5.6-2.2,11-3.8,16.4c-3,10.3-7.4,20-11.9,29.6c-4.2,9-9.3,17.6-14.5,26.1
        c-7.7,12.8-16.4,25-25.5,36.9c-4.8,6.3-9.7,12.5-14.8,18.5c-7.7,9-15.5,17.9-23.5,26.7c-0.3,0.4-0.6,0.7-1.1,1.1
        c-9.4-10.5-18.8-20.7-27.7-31.8c9.5-9.7,19-19.3,28.3-29.1c8.3,1.5,16.2,0.5,23.7-3.6c7.4-4.1,12.6-10,15.9-17.7
        c0.1-0.1,0.1-0.2,0.1-0.3c0.5-1.5,1-2.9,1.5-4.4c0.1-0.1,0.1-0.2,0.1-0.3c0.2-1.9,0.6-3.8,0.7-5.7c0.5-6.7-0.9-12.9-4.1-18.9
        c-0.1-0.2-0.2-0.5-0.4-0.7c5.3-4.2,10.1-8.8,14.2-14.2c4.4-5.7,7.6-12,10-18.8c1.5-4.2,2.3-8.6,3.1-12.9c0.1,0,0.1,0,0.2-0.1
        c0.1-0.1,0.1-0.2-0.1-0.2c0.4-4.1,0.7-8.1,0.4-12.2c-0.5-6.7-1.8-13.2-4.3-19.4c-2.4-5.6-5-11.1-8.8-15.9c-4.2-5.4-9-10.1-14.7-14
        c-4.5-3.1-9.2-5.8-14.3-7.7c-7.3-2.7-14.8-4.2-22.7-4.4c-6.8-0.1-13.4,1-19.8,2.8c-0.1,0-0.2,0-0.2,0.1C76.9,40,71,42.7,65.7,46.4
        c-5.6,3.8-10.5,8.2-14.7,13.5c-5.2,6-8.9,12.8-11.4,20.1c-0.8,2.4-1.4,5-2.1,7.4c-0.2,0.1-0.3,0.3-0.1,0.5
        c-0.1,0.9-0.2,1.8-0.4,2.7c-0.3,0.3-0.2,0.7-0.2,1.1v0.1C36.3,92,36.3,92.2,36.7,92.5z"/>

    <path fill="#5AA552" d="M105.4,175.4c4,1.7,8.2,3,12.5,4.6c5.8-5.6,11.6-11.3,17.2-17.3c3.4,6,3.1,18.1-3.6,26.7
        c-6.8,8.8-19.4,13.7-31.4,9.4c-10.3,10.1-20.3,20.6-30.5,31.2c-5.4-6.4-10.3-13.1-15.5-19.6c9-9.9,18.8-18.8,27.6-28.4
        c0.1-1.6-0.5-2.8-0.8-4.2c-0.7-3.9-0.5-7.8,0.2-11.7c1.5-7.3,5.3-12.9,11.3-17.3c3.4-2.5,7.2-3.8,11.3-4.4
        c3.8-0.7,7.5-0.3,11.2,0.5c0.8,0.2,1.8,0.2,2.5,1.3c-5.5,5.7-11,11.3-16.5,16.9C101.3,165.4,104,172.8,105.4,175.4z"/>

    <circle fill="#FFFFFF" cx="130.2" cy="73.6" r="5.6"/>
</g>
</svg>
