<?xml version="1.0" encoding="utf-8"?>
<!-- Generator: Adobe Illustrator 28.2.0, SVG Export Plug-In . SVG Version: 6.00 Build 0)  -->
<svg version="1.1" id="Layer_1" xmlns="http://www.w3.org/2000/svg" xmlns:xlink="http://www.w3.org/1999/xlink" x="0px" y="0px"
	 viewBox="0 0 1920 1080" style="enable-background:new 0 0 1920 1080;" xml:space="preserve">
<style type="text/css">
	.st0{fill:#FDFDFC;}
	.st1{fill:#1B3B69;}
	.st2{fill:#EF8627;}
	.st3{fill:#5AA552;}
	.st4{fill:#1A6CAE;}
	.st5{fill:#F8E8C8;}
</style>
<path class="st0" d="M-307.06,1254c0-476,0-952,0-1428c853.33,0,1706.67,0,2560,0c0,476,0,952,0,1428
	C1399.61,1254,546.28,1254-307.06,1254z M805.98,238.15c12.16-104.35,129.85-174.41,227.31-134.15
	c124.44,43.68,144.17,222.66,37.1,296.79c38.58,63.79-22.52,149.74-95.74,132.81c-23.81,25.3-48.09,50.02-72.3,74.88
	c97.02,117.33,55.45,92.4,171.39-37.33c77.4-109.09,177.34-245.04,132.19-384.95C1164.06,44.75,987.26-26.07,859.17,45.49
	c-124.94,61.06-163.25,221.22-99.66,340.41c21.98,48.93,48.16,96.23,80.09,139.39c44.29-47.13,60.31-42.62,63.12-109.65
	C836.02,384.71,795.68,310.8,805.98,238.15z M819.25,798.98c1.17,24.92-8.61,63.93,23.08,73.37c12.94,3.16,49.21,3.81,36.64-16.56
	c-1.41-3.44-1.64-7.44-4.51-10.22c-41.75,22.63-26.7-38.41-29.85-60.43c7.6-16.71,39.99,11.85,28.85-27.1
	c-52.18,6.29-15.56-21.32-32.61-25.52c-39.73-10.67-4.6,33.07-39.5,25.87C795.22,799.53,823.98,762.01,819.25,798.98z
	 M753.93,717.04c-0.11-0.1-0.22-0.2-0.32-0.3c-3.63,15.27,10.16,33.16,28.08,20.44C802.28,718.39,766.61,694.85,753.93,717.04z
	 M1308.95,802c10.38-5.45,16.13-18.23,23.89-26.23c18.28-25.05-0.73-19.4-21.03-19.76c-16.84-4.5-18.73,18.1-30.56,26.18
	c-11.06-6.31-11.95-18.87-21.18-26.19c-13.51,0.27-28.11,0.19-40.69-1.47c-0.17,4.92,3.33,10.68,3.59,15.34
	c3.16,5.19,9.06,6.36,10.44,11.86c5.18-0.1,6.15,5.1,5.62,9.22c5.88,3.61,8.15,8.03,10.49,14.72c23.81,9.16-38.7,56.38-31.95,68.22
	c57.4,6.81,33.97,2.13,62.18-27.74c13.41,4.17,13.3,24.28,26.77,29.82c9.32-0.89,50.28,5.05,34.58-10.82
	c-6.15-15.9-20.67-28.07-30.08-42.36c0.82-4.56-2.58-6.2-5.88-8.21C1303.82,809.78,1310.22,807.16,1308.95,802z M1078.63,334.81
	c3.7-0.75,5.77-7.18,10.26-8.66c-0.02-3.46-0.04-6.51,2.82-9.2c4.31-7.56,6.97-17.78,8.88-24.69c-0.55-18.39,6.32-31.44,3.77-49.46
	c-5.15-2.7-6.68-14.45-7.46-20.42c-3.51-9.46-6.82-18.63-8.57-28.19c-5.65,0.69-4.38-2.2-5.97-6.42
	c-6.43-2.47-5.45-10.15-10.95-9.92c-8.07-15.18-22.29-20.9-36.02-30.4c2.91-4.78-1.83-3.06-5.57-3.59
	c-34.07-15.22-79.04-17.64-113.86-0.06c-4.77,0.68-9.71-0.67-3.28,3.44c-16.15,5.99-25.47,16.97-39.09,26.63
	c-6.29,4.79-3.31,11.56-10.55,15.14c0.86,4.04-1.44,4.48-3.71,5.96c-3.64,7.1-6.34,23.78-12.18,25.3c-3.7,9.8,1.62,24.81-6.03,34.57
	c-2.82,17.33,5.28,28.39,5.87,44.05c9.2,9.91,2,27.54,15.63,31.54c1.17,3.83,2.92,6.81,6.14,8.28c0.04,4.27,0.06,6.75,4.08,8.1
	c0.78,1.83,2.87,0.55,3.81,1.83c-0.33,5.51,6.97,4.39,8.06,8.56c0.89,4.8,4.52,4.69,8.24,4.78c-0.61,4.05,4.15,7.43,8.13,8.47
	c-0.88,3.23,0.91,4.87,3.18,6.65c2.68-2.06,2.85,2.15,5.88-0.79c15.16,17.36,31.81-11.38,48.81-16.43
	c4.38,0.43,11.9-1.21,14.39-3.91c7.13-0.37,12.37,1.32,17.46-1.89c16.73,2.41,32.18,6.58,45.87,16.59
	c3.22,8.4,24.34-11.19,30.13-13.93C1067.96,347.08,1079.29,345.45,1078.63,334.81z M1075.79,1046.54
	c-7.18,0.21-20.37-1.55-17.53-12.06c6.93-8.83,20.96-2.72,30.8-4.67c26.12-3.22,23.03-47.39,3.08-56.9
	c-17.38-11.05-60.51-0.26-37.44,20.03c20.71-21.63,47.09,12.21,23.4,20.03c-32.35-10.5-59.26,31.29-25.17,47.88
	C1086.71,1075.7,1096.21,1042.27,1075.79,1046.54z M704.71,1028c55.91,6.25,60.78,5.23,56.01-57c-39.77-8.79-4.17,33.77-26.93,41.84
	c-29.02,6.68-18.5-23.6-20.99-41.31c-40.36-11.57,1.34,51.59-39.04,40.82c-14.07-16.76,13.08-60.63-23.54-50.73
	c-0.85,2.38,0.39,4.85-0.81,6.68c-41.73-11.26-61.68,53.3-14.1,57.17c6.33,1.74,13.35-5.86,17.58-2.26
	C664.6,1036.16,690.23,1031.46,704.71,1028z M869.53,972.05c-21.8,5.24-8.05,41.01-28.95,41.03c-28.72-12.29,15.73-50.4-57.68-44.77
	c-18.04,29.58,22.79,6.85,26.99,27.5c6.38,24.13-19.98,15.93-35.9,17.14c-6.96,26.8,31.36,18.07,47.78,14.13
	c10.76-2.94,29.27,12.16,40.49-3.97c15.68,13.13,31.3,11.34,47.11,1.06c14,10.93,52.54,12.9,49.54-12.79
	c-0.01-23.98-0.02-47.97-0.05-71.95c-0.54-6.83-14.71-1.4-20.2-3.05c-5.1,19.09,14.76,83.14-15.26,76.08
	c-17.1-5.92-0.91-37.03-27.32-41.79c-8.86-3.29-18.72-2.01-26.52,1.11L869.53,972.05z M1239.39,977.69
	c-2.62-1.76,0.19-4.34-2.3-6.55c-28.7-6.82-16.34,22.62-18.73,41.89c-41.91,8.85-15.85-53.34-23.74-76.99
	c-48.65-13.38,9.02,85.53-37.22,76.54c-0.93-19.5,0.48-38.37-0.58-57.38c-34.39-8.07-14.81,35.81-20.05,57.41
	c-16.85-1.33-24.35-0.57-21.14,17.59c17.67,1.74,35.75-0.06,53.6,0.6c8.46,0.64,15.47-1.7,22.32-6.24c8.05,9.51,21.75,5.3,32.73,6.2
	c18.99,0,37.98,0.1,56.97-0.03C1330.83,1014.91,1288.91,941.47,1239.39,977.69z M689.72,848.35c-63.12,12.62-83.4-87.1-22.43-102.09
	c33.99-13.7,47.6,34.89,70.07-1.92c-54-62.31-161.21,0.8-131.63,78.72c15.8,54.45,98.04,71.61,131.82,25.18
	C717.26,818.69,714.95,842.39,689.72,848.35z M981.54,453.12c-25.58-38.1,8.41-48.37,30.56-75.53
	c-36.7-18.99-86.51,10.84-92.53,51.27c-3.39,13.96-1.1,26.98,1.4,40.85c-22.81,24.64-47.63,47.76-70.68,73.07
	c13.35,16.89,25.96,33.99,39.68,50.43c26.31-27.12,51.87-54.07,78.08-80.08c56.66,23.82,114.5-46.53,89.47-92.66
	C1033.85,444.04,1016.22,477.62,981.54,453.12z M894.46,885.21c-30.37,39.96,50.89,35.72,58.5,4.18
	c19.29-42.93,35.45-87.22,53.34-130.76c-35.5-10.89-30.97,25.51-45.56,44.18c-1.64,12.86-9.3,23.71-13.8,36.15
	c-9.91-21.67-18.22-43.01-27.25-64.92c-3.07-20.06-18.16-15.55-34.51-15.62c5.36,14.6,12.52,28.06,17.16,42.9
	C914.92,826.25,961.11,912.87,894.46,885.21z M1174.11,758.28c-1.13,37.87-1.49,75.69-0.11,113.44c13.42-2.43,39.01,8.36,33.5-12.68
	c0.2-32.28,0.12-64.57,0.12-96.85C1204.14,752.98,1184.26,760.68,1174.11,758.28z M757.37,872.98
	c50.88,12.06,18.02-81.37,26.78-114.45C733.42,745.52,766.03,838.67,757.37,872.98z M1158.18,722.17
	c-36.68,1.25-78.56-4.22-112.19,1.82c-1.63,35.68,1.09,71.29-0.87,106.95c1.67,22.24-10.34,51.8,23.85,45
	c2.9-5.06,7.23,1.16,10.73-0.06c12.22-12.79,2.53-36.46,5.46-53.98c21.35,0,42.41,0,63.09,0c4.17-9.82-0.63-19.88,2.81-29.5
	c-3.32-8.2-4.39-1.78-5.92-6.12c-18.08,4.54-40.44,0.72-59.87,0.52c0-10.44,0-21.49,0-32.71c23.63,0.54,49.69-0.69,70.7-0.33
	C1160.25,746,1163.58,730.16,1158.18,722.17z M1316.3,936c7.32,27.26-19.25,102.41,19.71,94.59
	C1328.69,1003.49,1355.27,928.15,1316.3,936z M974.46,936c7.26,26.47-19.09,103.54,19.52,94.29
	C989.03,1014.32,1011.36,918.16,974.46,936z M1169.29,720.11c-4.4,20.4,23.24,31.85,36.7,17.67
	C1227.74,712.22,1178.41,690.42,1169.29,720.11z M1334.95,1049.61c16.3-16.68-30.12-15.16-22.56,5.23
	c2.26,6.12-7.81-0.03-4.68,11.27c5.76,1.02,29.32,0.63,33.5-0.53c2.84-10.91-9.43-6.99-16.22-8.11
	C1317.99,1048.76,1325.99,1042.8,1334.95,1049.61z M693.62,941.25c-2.69,17,3.09,18.67,19.16,17.01
	C715.97,941.16,709.02,939.64,693.62,941.25z M638.38,935.75c-14.77-1.61-19.83,0.96-16.89,16.36
	C636.55,953.87,640.54,951.4,638.38,935.75z M744.2,1058.65c2-15.35-1.38-18.64-16.58-16.66
	C725.08,1057.39,729.25,1060.61,744.2,1058.65z M766.86,1058.72c1.87-15.41-2.01-18.9-17.25-16.86
	C748.12,1056.85,751.22,1061.5,766.86,1058.72z M643.78,936.05c-2.34,15.72,2.51,17.37,16.9,15.83
	C664.21,935.2,657.63,934.95,643.78,936.05z M1160.41,742.71c0.16-0.23,0.23-0.3-0.11-0.31
	C1160.31,742.41,1160.41,742.71,1160.41,742.71z M1160.24,747.47c0.23,0.17,0.29,0.22,0.3-0.11
	C1160.53,747.36,1160.24,747.47,1160.24,747.47z"/>
<path class="st1" d="M805.82,239.91c-0.35,3.08-0.69,6.16-1.04,9.24c-1.31,5.54-0.93,11.11-0.35,16.69
	c0.68,6.78,1.22,13.57,2.1,20.33c2.25,17.49,7.68,34.03,15.26,49.8c9.99,20.76,23.81,38.71,41.53,53.61
	c12,10.09,24.66,19.13,39.41,26.07c-5.14,15.77-4.75,31.96-2.67,48.44c-20.09,20.34-40.17,40.66-60.46,61.21
	c-4.1-4.42-7.07-9.4-10.28-14.14c-12.78-18.85-24.85-38.15-35.99-58.01c-12.29-21.9-23.79-44.2-33.82-67.24
	c-11.18-25.68-20.58-51.96-26.22-79.43c-4.68-22.78-6.3-45.82-4.19-69.05c1.59-17.46,5.12-34.49,10.52-51.2
	c7.47-23.13,18.55-44.42,32.2-64.39c8.46-12.36,18.37-23.58,29.05-34.09c17.29-17.04,36.77-31.15,58.31-42.26
	c21.95-11.33,44.85-20.11,69.49-23.66c1.8-0.26,3.6-0.6,5.4-0.9c0.62,0.14,1.24,0.21,1.74-0.31c15.83-3.28,31.84-3.86,47.93-3.14
	c4.13,0.18,8.24,0.64,12.36,0.96c0.78,0.8,1.69,0.61,2.61,0.35c4.52,0.2,8.99,0.74,13.4,1.79c0.8,0.68,1.74,0.48,2.66,0.41
	c9.74,1.33,19.25,3.67,28.7,6.35c13.33,3.78,25.97,9.43,38.42,15.29c10.93,5.15,21.18,11.76,31.25,18.56
	c18.5,12.47,34.51,27.64,48.68,44.73c12.66,15.27,23.47,31.79,31.94,49.8c4.67,9.93,9.19,19.89,12.17,30.48
	c-0.07,0.24-0.02,0.45,0.17,0.63c5.03,13.46,7.69,27.5,9.72,41.65c2.99,20.73,2.79,41.51,0,62.23c-1.93,14.32-5.62,28.28-9.64,42.17
	c-7.64,26.42-18.79,51.41-30.46,76.21c-10.9,23.17-23.75,45.26-36.89,67.2c-19.74,32.96-41.94,64.24-65.09,94.86
	c-12.22,16.17-24.71,32.13-37.78,47.63c-19.59,23.24-39.78,45.97-60.04,68.63c-0.77,0.87-1.58,1.7-2.74,2.94
	c-23.98-26.88-48.03-53.41-70.83-81.88c24.22-24.86,48.49-49.58,72.31-74.88c21.15,3.68,41.41,1.29,60.4-9.14
	c18.91-10.39,32.39-25.68,40.64-45.6c0.23-0.21,0.3-0.46,0.2-0.75c1.27-3.76,2.54-7.53,3.81-11.29c0.22-0.24,0.26-0.5,0.12-0.8
	c0.69-4.93,1.55-9.82,1.91-14.82c1.22-17.23-2.3-33.36-10.41-48.55c-0.31-0.58-0.58-1.17-0.92-1.86
	c13.61-10.66,25.8-22.6,36.15-36.32c11.09-14.7,19.45-30.82,25.59-48.23c3.84-10.9,5.82-22.1,7.85-33.35
	c0.15-0.06,0.35-0.07,0.43-0.18c0.22-0.3,0.08-0.52-0.34-0.61c1.1-10.44,1.73-20.91,0.96-31.38c-1.27-17.15-4.43-33.9-11.01-49.91
	c-5.96-14.49-12.91-28.43-22.45-40.9c-10.67-13.94-23.11-26.05-37.58-36.12c-11.51-8.01-23.55-14.96-36.7-19.78
	c-18.7-6.85-37.94-10.89-58-11.24c-17.34-0.29-34.1,2.57-50.68,7.18c-0.21-0.06-0.4-0.02-0.56,0.12
	c-16.04,4.72-31.03,11.79-44.83,21.16c-14.2,9.65-26.7,21.21-37.51,34.65c-12.62,15.68-22.09,33.04-28.57,52.03
	c-2.14,6.26-3.55,12.76-5.3,19.15c-0.59,0.31-0.72,0.73-0.3,1.28c-0.34,2.26-0.69,4.53-1.03,6.79c-0.81,0.82-0.53,1.82-0.46,2.79
	l-0.06,0.24C804.94,238.65,804.86,239.23,805.82,239.91z"/>
<path class="st2" d="M892.96,361.98c-0.16-0.16-0.34-0.26-0.56-0.3c-0.76-2.7-3.41-3.49-5.21-5.14
	c-13.8-12.62-24.68-27.25-31.43-44.83c-5.92-15.4-9.65-31.2-9.98-47.78c-0.14-7.01,0.28-14,1.37-20.86
	c1.01-6.32,1.86-12.74,4.03-18.85c2.48-7.01,5.25-13.86,8.61-20.53c4.44-8.79,10.07-16.72,16.27-24.21
	c6.65-8.03,14.23-15.2,22.88-21.16c9.59-6.61,19.76-12.16,30.69-16.07c9.63-3.44,19.61-5.55,29.89-6.63
	c13.02-1.36,25.94-1.08,38.59,1.7c14.2,3.12,27.99,7.56,40.47,15.64c8.94,5.79,17.66,11.68,25.17,19.29
	c9.87,10,17.78,21.32,23.84,34c3.88,8.12,6.63,16.62,8.85,25.26c2.47,9.61,4.27,19.42,4.23,29.41c-0.02,6.29-1.03,12.52-1.62,18.78
	c-1.27,13.43-5.83,25.78-11.47,37.8c-2.74,5.83-5.93,11.45-8.92,17.16c0,0-0.04,0.14-0.04,0.14c-0.5,0.42-1.12,0.75-1.49,1.26
	c-7.25,9.93-15.65,18.8-25.24,26.46c-3.03,2.42-5.63,5.68-9.68,6.71c-42.01-26.04-81.58-22.75-119.37,9.85
	c-5.17-1.28-10.14-4.26-15.21-7.01C902.39,369.22,898.08,365.02,892.96,361.98z M909.91,220.01c-0.64,0.06-0.89,0.41-0.78,1.04
	l-0.08,0.16c-1.68,1.18-2.59,2.95-3.39,4.72c-3.62,7.97-6.52,16.11-7.88,24.86c-2.01,12.93-0.74,25.43,3.99,37.51
	c4.95,12.65,12.71,23.44,23.09,32.24c2.69,2.29,5.18,5.08,9.05,5.5l-0.01,0c0,1.19,0.77,1.69,1.75,2.13
	c3.75,1.69,7.4,3.63,11.22,5.14c7.09,2.81,14.37,4.9,22.13,4.49c1.64,0.05,3.29,0.09,4.93,0.14c4.47,0.17,8.97,0.47,13.32-0.92
	c4.69-1.5,9.4-2.93,14.06-4.57c7.18-2.53,13.39-6.64,19.1-11.18c7.86-6.25,14.41-13.81,19.12-23.06
	c5.12-10.06,8.24-20.54,9.16-31.62c1.25-15.11-2.85-29.17-9.8-42.48c-0.47-0.9-0.88-1.79-1.96-2.1l-0.01-0.01
	c0.29-1.3-0.53-2.28-1.16-3.18c-4.7-6.8-10.01-13.14-16.72-17.97c-4.34-3.12-8.49-6.91-14.12-7.81c-0.54-1.38-1.79-1-2.83-1.14
	c-0.2-0.62-0.29-1.55-1.01-1.55c-2.91,0.01-5.33-1.56-8.01-2.28c-11.88-3.18-23.89-2.85-35.83-0.91
	c-6.43,1.04-12.64,3.25-18.18,6.91L939,194.1c-1.49-0.39-2.52,0.68-3.61,1.3c-9.6,5.41-17.14,13.17-24.18,21.46
	c-0.67,0.79-1.53,1.8-1.26,3.11L909.91,220.01z M1036.79,200.13l0.02,0.02c-0.05,2.1,1.8,2.45,3.06,2.65
	c4.41,0.69,8.9,1.2,13.01-1.29c0.83-1.09,1.63-2.15,2.42-3.2c2.31-3.07,3.09-6.53,2.22-10.25c-2.27-9.75-10.49-12.34-18.88-9.1
	c-4.38,1.69-6.6,5.65-6.57,10.15C1032.09,193.21,1031.84,197.93,1036.79,200.13z"/>
<path class="st3" d="M981.54,453.12c10.22,4.31,21.09,7.81,32.05,11.79c14.92-14.49,29.57-29.14,43.91-44.44
	c8.65,15.52,7.98,46.43-9.29,68.59c-17.51,22.48-49.56,35.2-80.18,24.07c-26.21,26.01-51.77,52.96-78.08,80.08
	c-13.72-16.45-26.32-33.54-39.68-50.43c23.06-25.32,47.87-48.43,70.68-73.07c0.16-4.02-1.36-7.26-1.98-10.67
	c-1.85-10.12-1.38-20.08,0.59-30.18c3.64-18.74,13.47-33.3,28.69-44.45c8.6-6.3,18.44-9.59,28.86-11.37
	c9.65-1.65,19.2-0.85,28.68,1.17c2.19,0.47,4.67,0.54,6.3,3.39c-14.07,14.56-28.18,29.15-42.13,43.58
	C970.98,427.41,977.88,446.46,981.54,453.12z"/>
<path class="st4" d="M689.72,848.35c6.5-2.05,12.98-4.12,18.69-8.06c2.62-1.81,5.02-3.77,7.08-6.23c1.14-1.36,2.72-2.36,4.22-3.62
	c6.55,5.29,11.92,11.62,17.85,17.8c-1.56,4.1-5.19,6.61-8.35,9.36c-12.09,10.52-26.26,16.12-42.23,17.03
	c-9.83,0.56-19.63,0.5-29.24-2.25c-13.36-3.82-24.76-10.78-34.48-20.7c-8.06-8.23-13.96-17.85-17.52-28.62
	c-4.71-14.24-4.81-28.89-2.09-43.68c1.91-10.37,6.33-19.66,12.06-28.13c8.74-12.93,20.79-22.03,35.8-26.99
	c19.29-6.38,38.59-5.95,57.71,0.27c11.1,3.61,20.21,10.52,28.15,19.81c-5.89,6.05-10.97,12.65-17.64,17.93
	c-4.46-2.93-8.04-6.61-12.31-9.45c-12.48-8.32-26.18-10.14-40.13-6.56c-15.11,3.88-26.57,13.24-32.59,28.13
	c-4.39,10.85-6.07,22.16-3.74,33.76c1.41,7.01,4.18,13.47,8.24,19.54c7.77,11.62,18.82,17.75,32.01,20.79
	C677.38,849.28,683.55,849.47,689.72,848.35z"/>
<path class="st1" d="M1239.39,977.69c4.33-2.08,8.54-4.5,13.03-6.18c9.26-3.45,18.83-4.27,28.39-1.3
	c10.3,3.19,17.29,10.03,19.82,20.57c2.33,9.7,2.33,19.53-1.91,28.86c-3.35,7.37-9.47,11.04-17.46,11.09
	c-18.99,0.13-37.98,0.03-56.97,0.03c-4.66,0-9.33-0.09-13.99,0.05c-7.18,0.21-14.01-0.46-18.74-6.24c-0.63,0-0.86-0.07-0.95,0.01
	c-6.04,5.79-13.57,6.28-21.37,6.23c-15.99-0.1-31.98,0.02-47.97,0c-1.78,0-3.64,0.41-5.63-0.61c0-5.51,0-11.12,0-17.43
	c6.82-0.25,13.74,0.08,21.15-0.16c0.8-19.15-0.16-38.19,0.45-57.41c6.61,0,12.87,0,19.6,0c1.06,19.01-0.36,37.89,0.58,57.38
	c6.04-0.33,11.94,1.82,17.78-2.31c0-12.5-0.05-24.97,0.01-37.44c0.06-12.25-0.2-24.5,0.08-36.9c6.91-0.47,13.12,0.01,19.34,0.1
	c1.16,1.09,0.62,2.5,0.62,3.78c0.01,20.82-0.02,41.64-0.04,62.47c-0.01,7.96,2.74,10.7,10.8,10.74c3.96,0.02,7.92,0,12.36,0
	c0-14.09,0-27.67,0-41.55c6.71-0.76,12.96,0.06,18.73-0.33c2.26,1.73,0.21,3.85,1.35,5.41c-0.34,0.38-0.53,0.78-0.27,1.28
	C1238.63,978.25,1239.01,977.97,1239.39,977.69z M1281.56,1004.81c0.61-2.58,0.84-5.14-0.18-7.68c-2.41-7.43-6.49-10.58-14.67-10.98
	c-10.33-0.5-19.52,2.66-27.65,8.82c0,6.11,0,11.97,0,17.85c12.89,0,25.31,0,37.29,0
	C1279.86,1010.93,1280.77,1007.91,1281.56,1004.81z"/>
<path class="st1" d="M809.91,1007.22c0.48-3.8,0.87-7.57-0.03-11.4c-1.53-6.47-5.57-9.86-12.34-9.93
	c-5.81-0.06-11.62-0.01-17.85-0.01c0-5.77,0-11.34,0-17.02c0.85-0.87,2.08-0.54,3.2-0.54c8.32,0.03,16.64-0.05,24.96,0.2
	c6.6,0.2,12.09,3.28,16.92,7.6c2.59,2.31,3.75,5.42,4.48,8.72c-0.08,1.41-0.85,2.93,0.71,4.05c0.72,4.46,0.43,8.94,0.37,13.42
	c-0.1,6.61,3.65,10.52,10.25,10.77c8.16,0.31,11.1-2.18,11.82-10.51c0.47-5.52,1.64-10.83,3.66-15.95
	c2.59-6.57,6.94-11.61,13.48-14.57l-0.01-0.02c0.89-0.35,1.78-0.69,2.67-1.04c0.65,0.06,1.3,0.12,1.65-0.62
	c0.45-0.12,0.91-0.24,1.36-0.36c0.53-0.08,1.05-0.17,1.58-0.25c1-0.66,2.12-0.67,3.25-0.59c1.61,1.32,3.12-0.55,4.71-0.15
	c0.78-0.01,1.57-0.02,2.35-0.02c0.59-0.02,1.08,1.29,1.76,0.13c2.45,0.31,4.92,0.54,7.23,1.53c0.45,0.15,0.91,0.3,1.36,0.45
	c10.95,4.18,16.64,12.21,17.36,23.83c0.16,2.66,0.1,5.33,0.25,7.99c0.32,5.58,2.76,8.46,8.34,9.53c5.29,1.01,10.62,1.71,15.32-3.28
	c0.6-23.89,0.01-48.16-0.05-72.8c6.6,0,13,0,19.66,0c0.89,0.67,0.55,1.93,0.55,3.04c0.03,23.98,0.04,47.96,0.05,71.95
	c0,1.5-0.02,3-0.12,4.49c-0.54,8.51-5.56,14.07-14.05,14.71c-6.96,0.52-13.98,0.43-20.96,0.02c-5.55-0.33-10.15-2.88-14.41-6.43
	c-15.8,10.28-31.42,12.07-47.11-1.05c-4.72,5.32-10.76,7.8-17.97,7.79c-6.9-0.01-13.19-1.39-18.27-6.68
	c-1.54,1.03-2.9,1.95-4.26,2.85c-2.53,1.69-5.29,3.04-8.33,3.07c-12.79,0.1-25.58,0.04-38.83,0.04c-0.76-5.67-0.23-11.24-0.61-17.24
	c11.04,0,21.63,0,31.44,0c2.31-1.25,3.35-2.51,4.01-4.1C810.07,1008.45,810,1007.84,809.91,1007.22z M873.96,996.18
	c-0.15,0.03-0.37,0.01-0.45,0.1c-0.26,0.3-0.13,0.52,0.3,0.6c-0.02,3.08-0.03,6.16-0.05,9.24c-0.95,0.69-0.93,1.26,0.22,1.68
	c0.42,0.9,0.75,1.86,1.28,2.69c2.82,4.48,7.26,4.87,11.85,4.32c4.07-0.48,6.42-3.08,7.4-7.02c1.09-4.4,1.37-8.84,0.49-13.29
	c-0.95-4.78-5.66-8.28-10.54-7.99c-5.58,0.33-8.69,3.55-10.21,8.65c-0.26,0.2-0.32,0.45-0.17,0.74L873.96,996.18z"/>
<path class="st4" d="M894.46,885.21c4.43,1.79,8.09,4.04,12.25,5.27c7.79,2.29,17.54-0.63,22.55-9.72c0.48-0.87,0.97-1.75,1.47-2.61
	c1.8-3.06,2.09-6.11,0.64-9.5c-3.47-8.07-6.69-16.26-10.07-24.37c-5.49-13.18-11.02-26.36-16.59-39.51
	c-0.61-1.44-0.56-3.53-2.38-3.46c-4.64-14.84-11.8-28.3-17.16-42.9c9.59,0,18.54,0,27.72,0c2.72,4.94,4.59,10.34,6.8,15.63
	c2.21,5.3,4.38,10.62,6.46,15.97c2.11,5.42,4.41,10.78,6.67,16.14c2.32,5.52,4.67,11.03,7.06,16.52c2.27,5.22,3.99,10.71,7.05,16.28
	c2.01-2.95,2.63-5.36,3.22-7.91c0.51-2.19,2.12-4.09,3.02-6.22c1.03-2.44,1.53-5.14,2.79-7.43c1.21-2.21,2.29-4.47,3.01-6.83
	c0.73-2.38,2.93-4.5,1.75-7.76c-0.12,0.29-0.05,0.04-0.01,0.04c0.26,0.03,0.54,0.22,0.78,0.17c0.78-0.15,0.9-0.9,1.15-1.48
	c5.98-14.24,11.98-28.47,17.34-42.75c5.49-1.12,21-1.23,26.3-0.17c-1.81,5.31-4.13,10.39-6.21,15.5
	c-4.19,10.3-8.27,20.64-12.39,30.96c-6.58,16.52-13.25,33-19.91,49.48c-4.73,11.7-9.12,23.53-14.82,34.81
	c-8.52,16.86-23.33,26.12-43.36,24.77c-7.94-0.53-14.56-4.22-21.61-6.99c-1.09-0.43-1.78-1.87-2.98-3.19
	C887.88,897.89,890.79,891.63,894.46,885.21z"/>
<path class="st1" d="M701.08,1029.45c-3.3,1.49-6.83,1.25-10.31,1.29c-7,0.08-14-0.12-20.99,0.15c-7.01,0.26-12.7-1.92-16.89-7.67
	c-0.39-0.53-0.92-0.96-1.39-1.42c-0.11-0.1-0.29-0.13-0.75-0.32c-4.61,2.75-9.8,4.02-15.44,4c-17.33-0.06-28.92-12.81-27.64-30.08
	c1.31-17.64,14.57-26.52,28-27.06c4.47-0.18,8.96-0.03,13.74-0.03c1.2-1.83-0.04-4.29,0.82-6.68c3.13-0.78,6.45-0.24,9.72-0.34
	c3.13-0.09,6.26-0.02,9.5-0.02c0.75,2.16,0.47,3.99,0.48,5.76c0.02,12.33,0.03,24.66-0.01,36.99c-0.01,3.33,0.65,6.28,3.87,8.34
	c4.61,0.78,9.44,0.2,14.24,0.46c2.14,0.12,3.79-1.01,4.94-3.33c0.66-12.27,0.32-24.92,0.36-37.94c6.56,0,12.91,0,19.5,0
	c0.75,3.14,0.31,6.28,0.37,9.36c0.14,7.48,0,14.97,0.08,22.45c0.06,6.16,2.48,8.94,8.56,9.43c3.97,0.32,8,0.33,11.98,0.06
	c5.22-0.35,7.4-2.76,7.45-8.11c0.1-9.5-0.03-18.99,0.01-28.49c0.01-1.63-0.5-3.34,0.69-5.24c6,0,12.24,0,18.78,0
	c1.02,0.73,0.78,2.15,0.78,3.44c-0.05,11.66-0.09,23.33-0.25,34.99c-0.04,2.97-0.23,6-0.85,8.9c-1.37,6.42-5.83,10.07-11.99,11.21
	c-8.71,1.61-17.57,1.34-26.39,0.99c-4.73-0.19-8.22-3.31-11.93-6.02c-1.86,1.2-3.62,2.35-5.38,3.49c-0.24-0.06-0.44,0-0.6,0.2
	c-0.54,0.24-1.08,0.47-1.63,0.71C701.95,1028.93,701.4,1028.9,701.08,1029.45z M642.78,1008.37c2.91-0.96,5.61-2.18,6.76-5.36
	c0.98-2.71,0.8-14.23-0.34-17.72c-5.19-0.89-10.23-0.14-15.01,2.04c-2.8,1.28-4.88,3.21-5.51,6.57
	c-1.57,8.32,1.86,13.29,10.45,14.73C640.39,1009.09,641.63,1009.3,642.78,1008.37z"/>
<path class="st4" d="M843.88,732.65c1.68,0.04,1.07,1.35,1.07,2.14c0.05,5.99,0.01,11.98,0,17.96c0,1.63,0,3.26,0,5.28
	c9.87,0,19.29,0,28.52,0c1.49,3.77,1.77,13.96,0.66,21.9c-9.48,0-19.04,0-28.38,0c-1.38,1.88-0.36,3.71-1.14,5.19
	c-0.47,0.12-0.94,0.23-1.3,0.33c0,17.3,0,34.49,0,51.69c0.59-1.65,0.59-3.29,0.59-4.94c-0.01-13.5-0.04-27,0.02-40.5
	c0.01-1.57-0.75-3.34,0.66-4.75c0.77,3.29,0.3,6.62,0.33,9.93c0.1,11.98,0,23.96,0.19,35.93c0.06,4.1,0.12,8.28,2.65,11.97
	c2.13,3.1,4.93,4.81,8.58,5.35c6.21,0.92,10.1-0.04,18.14-4.59c2.87,2.78,3.1,6.78,4.5,10.22c1.41,3.45,2.58,7,3.77,10.27
	c-0.57,1.99-2.18,2.56-3.41,3.08c-11.96,5.04-24.25,6.57-37,3.21c-11.22-2.96-17.53-10.76-21.18-21.18
	c-1.27-3.61-2.03-7.36-2.05-11.23c-0.05-7.31-0.44-14.62,0.22-21.92c1.3,1.62,0.56,3.52,0.58,5.26c0.11,6.43,0.04,12.86,0.04,19.29
	c0.26,0,0.52-0.01,0.77-0.01c0-19.69,0-39.38,0-59.13c-0.47-0.15-0.93-0.31-1.39-0.46c-0.58-0.79-1.16-1.57-1.88-2.55
	c-5.17-0.36-10.49,0.28-16.08-0.58c0-7,0-14.02,0-21.46c5.72,0,11.31,0,17.44,0c0.55-8.76,0.03-17.18,0.31-26.3
	c7.35,0.18,14.53-0.46,21.74,0.43c-1.68,1.12-3.55,0.45-5.32,0.49c-5.09,0.11-10.18,0.04-15.28,0.04c0,7.81,0,15.07,0,22.33
	c0.28,0,0.56,0,0.84,0.01c0-7.05,0-14.09,0-21.34c7.57-0.04,14.62-0.13,22,0.04c0,6.92,0,13.15,0,19.39c0.26,0,0.51,0,0.77,0
	C843.88,746.53,843.88,739.59,843.88,732.65z"/>
<path class="st2" d="M1174.11,758.28c11.28,0,21.89,0,32.19,0c1.55,1.2,1.3,2.59,1.3,3.9c0,32.28,0.09,64.57-0.12,96.85
	c-0.03,4.08,0.37,8.19,0.06,12.69c-11.24,0-22.31,0-33.55,0c-0.98-3.71-0.71-7.61-0.72-11.48c-0.03-10.32,0.09-20.64-0.12-30.95
	c-0.12-5.67,0.99-11.27,0.71-16.9c-0.63-12.62-0.77-25.24-0.6-37.86C1173.34,769.25,1173.8,763.98,1174.11,758.28z"/>
<path class="st1" d="M1092.46,973.05c11.96,7.17,15.33,18.49,14.93,31.46c-0.18,5.79-0.91,11.55-4.13,16.69
	c-3.32,5.29-7.86,8.49-14.2,8.62c-7.3,0.15-14.61,0.29-21.9,0.13c-3.86-0.08-6.8,1.06-8.89,4.53c-0.66,1.62-0.36,3.43-0.21,5.06
	c2.61,5.06,7.42,5.98,12.09,7.13c1.9,0.46,3.78,0.63,5.65-0.14c2.72-0.73,5.4-1.65,8.64-1.32c1.3,5.64,0.71,11.38,0.73,17.61
	c-11.05,0.6-21.76,2.01-32.24-1.97c-9.59-3.64-14.58-10.68-15.26-20.77c-0.55-8.09,0.68-15.74,7.4-21.28
	c5.05-4.16,10.99-6.15,17.55-6.1c5.16,0.04,10.32,0.27,15.49,0.28c5.69,0.01,7.84-2.01,8.34-7.61c0.09-0.99-0.01-2,0.05-2.99
	c0.77-14.32-11.94-19.36-23.47-14.64c-2.95,1.21-5.32,3.35-8.31,5.22c-3.63-3.85-5.78-8.66-8.57-12.98
	c9-10.56,30.76-16.11,46.01-7.05L1092.46,973.05z"/>
<path class="st4" d="M757.37,872.98c0-38.68,0-76.41,0-114.45c8.92,0,17.66,0,26.77,0c0,37.63,0,75.34,0,113.63
	C775.38,873.76,766.44,872.09,757.37,872.98z"/>
<path class="st5" d="M1078.68,334.67c2.99-5.71,6.18-11.33,8.92-17.16c5.64-12.03,10.2-24.37,11.47-37.8
	c0.59-6.26,1.6-12.49,1.62-18.78c0.03-9.99-1.76-19.8-4.23-29.41c-2.22-8.64-4.97-17.14-8.85-25.26c-6.07-12.68-13.97-24-23.84-34
	c-7.51-7.61-16.23-13.5-25.17-19.29c-12.47-8.08-26.27-12.52-40.47-15.64c-12.65-2.78-25.57-3.06-38.59-1.7
	c-10.28,1.08-20.25,3.18-29.89,6.63c-10.93,3.91-21.1,9.46-30.69,16.07c-8.65,5.96-16.24,13.13-22.88,21.16
	c-6.2,7.49-11.83,15.42-16.27,24.21c-3.37,6.67-6.13,13.52-8.61,20.53c-2.17,6.11-3.02,12.54-4.03,18.85
	c-1.1,6.85-1.51,13.84-1.37,20.86c0.33,16.58,4.06,32.38,9.98,47.78c6.75,17.58,17.63,32.21,31.43,44.83
	c1.8,1.64,4.45,2.44,5.21,5.14c-1.48,0.12-2.97,0.25-4.39,0.37c-1.26-1.62-3.02-2.49-3.29-4.84c-0.16-1.37-1.63-2.84-3.37-3.16
	c-3.07-0.55-4.28-2.6-4.69-5.4c-0.93-1.28-3.03,0-3.81-1.82c-0.57-1.33-2.62-0.5-3.35-1.89c-1.03-1.85-0.26-3.91-0.74-6.21
	c-3.21-1.46-4.97-4.44-6.14-8.28c-5.08-0.89-6.82-5.56-9.4-9.53c1.35-4.68-2.04-16.92-6.23-22.02c0-2.42,0-4.92,0-7.58
	c-0.62-1.38-1.29-2.89-2.06-4.6c0-1.45,0-3.12,0-4.74c-1.14-1.3-2.9-1.82-3.81-3.93c0-7.28,0-15.09,0-23.2
	c2.07-1.18,1.98-4.08,3.82-5.67c0-5.31,0-10.47,0-15.53c2.7-3.91,2.74-5.39,0.11-8.78c0.74-1.4,2.28-2.49,2.1-4.59
	c0.72,0.61,1.08,0.91,1.3,1.1c3.98-8.62,8.07-17.25,10.87-26.39c0.53-1.54,2.38-0.43,3.5-1.89c0.06-1.15,0.14-2.62,0.21-4.07
	c1.35-1.99,3.09-3.32,5.74-3.24c0-2.5,0-4.63,0-6.43c1.32-2.48,3.34-3.77,4.8-5.47c7.57-3.13,11.79-9.77,16.82-15.81
	c1.61,0,3.25,0,4.96,0c4.64-5.55,11.23-7.78,17.3-10.82c-0.28-2.22-2.88-0.44-3.55-2.54c1.97-1.43,4.37-0.23,6.83-0.89
	c4.73-5.58,13.24-2.97,18.69-7.76c1.75,0,3.41,0,5.07,0c1.16-0.2,1.22-1.64,2.57-2.01c1.32,0,2.98,0,4.67,0
	c0.97-0.67,1.92-1.32,2.87-1.98c13.68,0,27.34,0,41.03,0c0.71,0.65,1.42,1.29,2.14,1.94c2.23,0,4.39,0,6.56,0
	c1.23,0.07,1.3,1.53,2.77,1.95c1.98,0,4.47,0,7.33,0c1.36,2.44,3.92,2.12,6.18,2.13c1.1,0.45,1.23,1.82,3.44,1.92
	c0.64,0,2.3,0,4.37,0c1.34,2.39,4.89,1.48,6.17,3.87c2.48,0.41,4.68-0.29,6.63,0.52c0.64,1.52-1.34,1.47-1.06,3.06
	c3.01,3.93,9.49,3.69,12.21,8.41c1.38,0.12,2.52,0.22,3.62,0.32c1.93,2.64,3.01,6.14,7.1,5.99c0.73,1.23,1.4,2.35,2.19,3.66
	c1.19,0.11,2.48,0.24,3.7,0.36c1.82,4.41,5.07,7.73,7.2,11.66c1.41,0.1,2.55,0.19,3.64,0.27c0.82,1-0.6,1.85,0.27,3.28
	c1.99,2.02,4.28,4.54,7.04,6.37c0.54,2.07,1.82,3.76,0.98,6.05c1.68,0.12,3.3,0.24,4.99,0.36c1.16,2.09,0.18,4.32,0.83,6.69
	c3.49,5.31,3.94,11.99,6.11,18.11c0.13,1.02,1.5,1.14,1.63,3.39c0,0.92,0,2.92,0,4.8c2.38,4.42,3.78,9,4.25,14.17
	c0.61,1.17,2.87,0.33,3.2,1.45c1.69,4.79-1.26,8.72-0.43,12.51c0.06,1.8,1.68,2.39,1.98,4.19c-1.39,4.44-4.19,9.02-2.83,14.24
	c-0.78,1.16-1.42,2.12-2.43,3.63c0,4.61,0.04,9.75-0.06,14.89c-0.01,0.46-0.88,0.9-1.47,1.46c0.36,1.65,1.21,3.34,0.64,5.39
	c-2.1,3.29-4.41,6.6-5.04,10.98c-0.33,2.31-1.32,5.28-3,6.85c-2.87,2.69-2.84,5.74-2.82,9.2c-3.3,2.21-6.65,4.47-8.4,8.35
	C1080.18,335.18,1079.31,334.82,1078.68,334.67z"/>
<path class="st5" d="M1308.95,802c0.73,3.11-1.2,5.57-2.77,7.59c-1.4,1.8-1.14,3.21-1.06,4.99c1.55,1.73,4.36,1.7,5.39,4.03
	c0.75,1.35,0.2,2.89,0.48,4.18c5.91,6.27,10.03,13.61,15.15,21.04c0.21,0.04,1.16,0.24,2.09,0.44c3.77,4.76,6.44,10.27,10.58,14.77
	c1.51,1.65,2.46,3.92,2.26,6.11c1.01,1.3,2.48,0.46,3.6,1.57c0,2.03,0,4.29,0,6.61c-2.58,1.97-5.41,2.77-8.75,2.71
	c-9.83-0.18-19.66-0.06-29.43-0.06c-2.52-1.55-4.98-3.06-6.83-4.2c-2.98-4.2-4.09-8.79-6.86-12.13c-3.34-4.05-5.75-8.79-9.62-12.45
	c-1.18-1.12-2.16-1.27-3.46-1.04c-1.23,0.78-0.5,2.21-1.36,3.54c-4.7-0.92-5.19,3.73-7.25,6.33c-2.23,2.81-4.68,5.56-6.28,8.96
	c0,1.82,0,3.63,0,5.2c-2.35,3.39-6.55,3.24-9.12,5.75c-10.84,0-21.66,0-32.84,0c-0.95-2.26-3.22-2.02-5.33-2.05
	c-0.56-1-1.04-1.85-1.47-2.64c0.39-1.21,0.73-2.3,1.2-3.75c0.83-0.49,1.96-1.15,2.85-1.68c2.25-3.43,2.04-8.09,6.36-10.18
	c0.9-0.78,0.08-2.21,0.86-3.11c3.36-1.68,7-3,7.72-7.38c0.03-0.15,0.08-0.36,0.2-0.44c4.3-2.86,5.67-8.14,9.66-11.76
	c0-1.16,0-2.63,0-4.04c2.66-2.48,5.16-4.81,7.82-7.29c-0.08-2.19,0.93-4.03,2.17-5.48c0-2.3,0-4.29,0-6.13
	c-1.06-2.56-3.46-3.17-5.41-4.35c-1.31-3.8-3.74-7.12-4.53-11.3c-2.57-0.15-4.35-1.45-5.96-3.43c0-1.81,0-3.79,0-5.63
	c-1.55-1.96-2.95-3.76-5.62-3.59c-1.38-5.5-7.28-6.67-10.44-11.86c-0.38-1.01,0.75-3.81-2-4.78c0-2.15,0-3.98,0-5.89
	c-0.88-1.39-2.89-2.44-1.59-4.68c1.27-0.95,2.8-0.35,3.98-0.45c1.59,0.04,1.63,1.94,2.12,1.92c12.05,0,23.21,0,34.59,0
	c3.95,3.35,7.52,6.85,9.07,12.41c1.11,3.97,3.53,7.72,7.78,9.79c1.64,0.8,2.82,2.56,4.33,3.99c5.52-2.85,6.22-9.87,11.58-12.69
	c0.08-1.6,0.16-3.08,0.25-4.69c4.31-1.34,4.86-6.55,9.39-8.6c2.94-0.23,2.94-0.23,5.05-1.74c0.9,2,2.7,1.54,4.3,1.54
	c7.83,0.01,15.66,0.01,23.49,0c1.64,0,3.29,0,5.02,0c1.09,2.47,0.42,4.78,0.56,6.8c-3.63,3.93-5.98,8.33-8.04,12.95
	c-1.48,3.31-3.55,6.26-7.73,6.61c-0.13,1.54-0.24,2.84-0.35,4.14c-3.74,5.41-9.74,8.9-12.95,15.41
	C1311.27,802.21,1310.09,801.92,1308.95,802c0.01-1.04,0.41-1.87,1.07-2.7c2.25-2.84,4.53-5.66,6.54-8.67
	c5.06-7.54,10.65-14.69,16.08-21.95c2.09-2.79,4.41-5.62,5.84-9.88c-12.37,0-23.97,0-35.17,0c-1.44,1.74-2.48,2.83-3.32,4.05
	c-5.06,7.32-10.07,14.67-15.09,22.02c-1.11,1.63-2.21,3.25-4.5,4.24c-6.6-10.22-14.38-19.43-20.4-29.68
	c-9.38-2.13-31.44-1.84-37.33,0.64c12.92,17.77,25.78,35.44,38.78,53.32c-12.57,18.43-25.82,35.86-38.59,53.78
	c-0.11,1.34-0.48,2.82,0.33,4.58c11.3,0,22.74,0,34.25,0c7.19-11.38,14.55-22.8,23.23-34.02c9.01,11.47,16.67,23.01,24.34,34.02
	c12.6,0,24.55,0,36.8,0c-0.59-2.62-1.67-4.53-2.99-6.46c-6.51-9.56-13.92-18.44-20.77-27.75c-4.8-6.52-9.66-12.98-14.35-19.58
	c-1.19-1.67-3.05-3.18-2.57-6.11c1.55-3.02,4.58-5.57,6.08-9.12C1307.5,802.05,1308.29,802.08,1308.95,802z"/>
<path class="st5" d="M1158.18,722.17c0.73,0.8,1.61,1.75,2.64,2.88c0,3.61,0,7.43,0,10.82c0.27,1.9-1.46,2.06-1.9,3.6
	c0,3.57,0,7.57,0,11.55c-1.02,0.95-1.97,1.84-2.95,2.75c-2.16,1.26-2.95-1.46-4.64-1.74c-1.83-0.46-2.52,1.28-3.58,2.07
	c-20.84,0-41.48,0-62.48,0c0,11.22,0,22.27,0,32.71c19.11,1.51,38.16,1.24,57.41,1.19c1.2,0.24,1.06-2,2.46-1.71
	c0.65,0.37,0.1,0.89,0.25,1.34c1.05,0.97,2.08-0.05,3.43-0.12c-0.3,2.01,1.52,3.09,2.24,4.91c-1.18,2.08-1.19,4.38-1.16,6.7
	c0.05,3.67-0.01,7.33,0.02,11c0.02,3.8,0.23,7.62-1.67,11.79c-20.68,0-41.74,0-63.09,0c0,16.66,0,32.77,0,49
	c-1.77,1.62-3.45,3.15-5.46,4.98c-1.6,0.03-3.43,0.38-5.4-1.39c-1.77-1.59-4.02-0.43-5.32,1.45c-6.38,0-12.54,0-18.91,0
	c-3.7-2.81-5.62-6.52-5.1-11.4c0.3-2.77-0.5-5.6,0.81-8.34c0.76-1.59-0.9-3.04-0.86-4.78c0.14-6.83-0.63-13.75,0.21-20.48
	c1.5-12.12,1.06-24.25,0.61-36.32c-0.34-9.11-1.32-18.26-0.62-27.31c1.13-14.45,0.61-28.88,0.88-43.32
	c0.01-0.47,0.18-0.94,0.34-1.67c2.42-0.57,4.9-0.18,7.35-0.33c3.11-0.19,6.27,0.52,9.35-0.8c1.12-0.48,2.66-0.26,3.95-0.03
	c10.74,1.9,21.56,0.83,32.32,0.59c4.04-0.09,8.27-1.09,12.31-0.61C1127.04,722.95,1142.5,721.36,1158.18,722.17z M1049.41,724.11
	c-1.04,8.06-0.72,144.09,0.28,147.62c10.59,0,21.18,0,31.99,0c0-17.98,0-35.67,0-53.76c22.01-1.29,44.02-0.45,66.21-0.97
	c0-9.19,0-17.78,0-26.99c-21.94,0-43.67,0-65.67,0c0-13.2,0-25.79,0-38.31c2.53-1.44,5.14-1.51,7.81-1.51
	c20.66,0.01,41.33-0.01,61.99-0.05c1.46,0,2.98,0.3,4.36-0.41c1.02-5.47,0.83-22.14-0.29-25.63
	C1120.63,724.11,1085.16,724.11,1049.41,724.11z"/>
<path class="st1" d="M1316.3,936c6.74,0,13.03,0,19.71,0c0,31.44,0,62.94,0,94.59c-6.55,0-12.97,0-19.71,0
	C1316.3,999.07,1316.3,967.85,1316.3,936z"/>
<path class="st1" d="M974.46,936c6.61,0,12.9,0,19.2,0c1.03,2.97,1.4,88.15,0.33,94.28c-6.33,0.79-12.74,0.09-19.53,0.53
	C974.46,999.07,974.46,967.85,974.46,936z"/>
<path class="st2" d="M1169.29,720.11c2.87-6.59,6.65-11.47,13.11-13.93c3.16,0,6.32-0.11,9.47,0.02c8.47,0.37,15.33,3.95,18.1,12.11
	c2.31,6.81,1.3,13.76-3.97,19.46c-3.66,3.96-8.14,5.96-13.52,5.94c-4.12-0.02-8.15,0.11-12.17-1.67
	c-6.76-2.99-10.04-8.18-10.95-15.13C1169.02,724.46,1169.29,721.93,1169.29,720.11z"/>
<path class="st4" d="M753.93,717.04c2.55-2.64,5.1-5.28,7.86-8.14c1.12,0.03,2.47,0,3.87-0.28c6.93-1.4,13.4,0.04,18.15,5.38
	c6.08,6.85,4.97,17.4-2.12,23.18c-11.31,9.22-25.79,1.97-28.03-8.49c-0.61-2.84-0.57-5.59,0.09-8.37c0.26-1.09,1-2.16,0.24-3.33
	C753.99,716.98,753.93,717.04,753.93,717.04z"/>
<path class="st5" d="M892.96,361.98c5.12,3.04,9.43,7.24,14.69,10.1c5.08,2.76,10.04,5.73,15.21,7.01
	c37.79-32.6,77.36-35.89,119.37-9.85c4.05-1.03,6.64-4.29,9.68-6.71c9.59-7.66,17.99-16.52,25.24-26.46
	c0.37-0.51,0.99-0.84,1.49-1.26c0.07,0.65,0.23,1.31,0.2,1.96c-0.06,1.38-2.24,1.47-1.93,3.2c0.2,1.12,0.04,2.3,0.04,3.32
	c-3.1,3.52-7.3,5.5-9.94,10.47c-0.02,0.34-0.11,1.82-0.18,2.96c-6.06,4.57-12.22,8.64-19.89,13.05c-2.5-0.05-5.47,2.94-8.63,4.34
	c-1.84-1.06-0.98-2.51-1.61-3.46c-3.95-3-9.01-4.34-12.58-8.54c-1.84,0.25-3.5-0.78-4.96-2.14c-1.76,0-3.43,0-5.1,0
	c-0.75-0.68-1.46-1.33-2.36-2.14c-7.48,1.77-13.5-4.94-20.87-3.78c-1.61-0.24-1.84,1.4-3.06,1.89c-4.32,0-8.82,0-14.4,0
	c-0.17-0.01-0.34,1.33-1.46,1.96c-4.48-0.93-8.35,3.58-12.94,1.95c-6.93,3.52-13.6,6.86-17.58,11.27
	c-6.86,3.88-11.68,8.26-18.94,10.77c-1.6,0-4.59,0-7.82,0c-1.14-2.07-2.47-4.11-4.47-5.61c-1.08-0.17-1.16,1.05-1.99,1.42
	c-1.31-0.37-2.39-2.46-3.89-0.63c-2.26-1.77-4.06-3.42-3.18-6.65c-3.75-0.13-4.93-3.78-7.75-4.88
	C892.74,364.3,893,363.12,892.96,361.98z"/>
<path class="st1" d="M1334.95,1049.61c-5.28-3.54-9.27-3.95-11.49-1.35c-1.96,2.28-1.52,5.3,1.54,9.21c5,0.23,10.27,0.47,15.55,0.71
	c1.3,2.56,0.5,5.03,0.67,7.4c-4.19,1.16-27.74,1.55-33.5,0.53c-0.03-2.51-0.66-5.08,0.31-7.59c1.6-0.92,3.43,0.13,4.91-0.86
	c0.44-1.06-0.37-1.88-0.54-2.82c-1.54-8.61,4.06-15.94,12.78-16.7c7.34-0.65,9.81,0.23,14.84,5.33
	C1339.34,1046.15,1336.94,1047.52,1334.95,1049.61z"/>
<path class="st1" d="M693.62,941.25c6.37,0,12.46,0,18.99,0c0.41,5.76,0.4,11.28,0.17,17.02c-6.57,0-12.79,0-19.16,0
	C693.62,952.39,693.62,946.84,693.62,941.25z"/>
<path class="st1" d="M638.38,935.75c0,5.76,0,10.87,0,16.36c-5.71,0-11.21,0-16.89,0c-0.45-5.43-0.29-10.53-0.14-15.91
	C626.93,935.25,632.43,936.18,638.38,935.75z"/>
<path class="st1" d="M744.2,1058.65c-5.54,0-10.91,0-16.56,0c-0.46-5.54-0.16-10.94-0.03-16.66c5.55,0,10.93,0,16.58,0
	C744.2,1047.55,744.2,1052.94,744.2,1058.65z"/>
<path class="st1" d="M766.86,1058.72c-5.8,0.4-11.02,0.24-16.58,0.07c-0.98-5.67-0.07-11.2-0.67-16.93c5.71,0,10.96,0,16.51,0
	C767.24,1047.39,766.51,1052.93,766.86,1058.72z"/>
<path class="st1" d="M643.78,936.05c5.73,0,11.18,0,16.63,0c0.91,3.2,1.05,10.42,0.27,15.83c-5.51,0-11.06,0-16.9,0
	C643.78,946.73,643.78,941.66,643.78,936.05z"/>
<path class="st1" d="M819.33,782.98c0.46,0.15,0.93,0.31,1.39,0.46c0,19.74,0,39.43,0,59.13c-0.26,0-0.52,0.01-0.77,0.01
	c0-6.43,0.07-12.86-0.04-19.29c-0.03-1.75,0.71-3.64-0.58-5.26c-0.34-2.68-0.36-5.36-0.01-8.04c1-1.33,0.99-2.65,0-3.98
	c-0.33-1.99-0.31-3.99-0.05-5.99c0.69-0.35,0.67-0.69-0.01-1.04c0-0.66,0-1.33,0-1.99c1.02-0.99,0.99-1.99,0.03-3
	c-0.3-1.67-0.3-3.33,0.01-5c1.02-0.99,0.98-1.99,0.03-3C819.07,784.99,818.98,783.99,819.33,782.98z"/>
<path class="st1" d="M843.88,732.65c0,6.94,0,13.87,0,20.81c-0.26,0-0.51,0-0.77,0c0-6.24,0-12.47,0-19.39
	c-7.38-0.17-14.42-0.08-22-0.04c0,7.25,0,14.3,0,21.34c-0.28,0-0.56,0-0.84-0.01c0-7.26,0-14.52,0-22.33
	c5.09,0,10.19,0.07,15.28-0.04c1.77-0.04,3.64,0.64,5.32-0.49C841.89,732.17,842.9,732.09,843.88,732.65z"/>
<path class="st1" d="M844.58,786.97c-1.41,1.41-0.65,3.17-0.66,4.75c-0.06,13.5-0.03,27-0.02,40.5c0,1.65,0,3.29-0.59,4.94
	c0-17.2,0-34.39,0-51.69c0.36-0.09,0.83-0.21,1.3-0.33C844.89,785.76,844.85,786.37,844.58,786.97z"/>
<path class="st3" d="M689.72,848.35c-6.17,1.11-12.34,0.93-18.52,0.13C677.37,848.44,683.55,848.4,689.72,848.35z"/>
<path class="st4" d="M804.43,265.84c-0.58-5.58-0.96-11.15,0.35-16.69C804.98,254.72,804.9,260.29,804.43,265.84z"/>
<path class="st3" d="M884.74,969.03c-1.58-0.41-3.09,1.46-4.71,0.15C881.58,968.61,883.13,967.99,884.74,969.03z"/>
<path class="st3" d="M1075.79,1046.54c-1.86,0.77-3.75,0.6-5.65,0.14C1072.01,1046.01,1073.89,1046.14,1075.79,1046.54z"/>
<path class="st4" d="M819.31,806.01c0.99,1.33,1,2.65,0,3.98C818.86,808.66,818.86,807.33,819.31,806.01z"/>
<path class="st3" d="M829.96,988.89c-1.56-1.12-0.79-2.65-0.71-4.05C830.23,986.06,830.03,987.48,829.96,988.89z"/>
<path class="st3" d="M1014.75,21c-0.92,0.07-1.85,0.27-2.66-0.41C1013.06,20.19,1013.94,20.36,1014.75,21z"/>
<path class="st4" d="M819.28,793.99c0.96,1.01,0.99,2.01-0.03,3C818.86,795.99,818.85,794.99,819.28,793.99z"/>
<path class="st3" d="M998.69,18.8c-0.92,0.25-1.83,0.45-2.61-0.35C997.02,18.07,997.9,18.13,998.69,18.8z"/>
<path class="st4" d="M819.32,786c0.95,1.01,0.98,2.01-0.03,3C818.88,787.99,818.86,786.99,819.32,786z"/>
<path class="st3" d="M806.04,237.92c-0.06-0.97-0.35-1.97,0.46-2.79C806.96,236.16,806.66,237.06,806.04,237.92z"/>
<path class="st3" d="M888.85,969.14c-0.68,1.15-1.17-0.15-1.76-0.13C887.74,968.21,888.32,968.38,888.85,969.14z"/>
<path class="st3" d="M935.8,20.62c-0.51,0.52-1.12,0.45-1.74,0.31C934.58,20.48,935.11,20.09,935.8,20.62z"/>
<path class="st3" d="M876.78,969.77c-0.53,0.08-1.05,0.17-1.58,0.25C875.64,969.36,876.18,969.38,876.78,969.77z"/>
<path class="st3" d="M873.84,970.38c-0.36,0.73-1,0.67-1.65,0.62C872.59,970.39,873.11,970.11,873.84,970.38z"/>
<path class="st3" d="M897.44,971.12c-0.45-0.15-0.91-0.3-1.36-0.45C896.67,970.39,897.24,970.2,897.44,971.12z"/>
<path class="st3" d="M805.82,239.91c-0.96-0.68-0.88-1.27,0.17-1.76C805.93,238.74,805.87,239.32,805.82,239.91z"/>
<path class="st3" d="M809.91,1007.22c0.09,0.62,0.16,1.23-0.47,1.64C809.02,1008.14,809.3,1007.63,809.91,1007.22z"/>
<path class="st3" d="M701.08,1029.45c0.32-0.55,0.87-0.52,1.4-0.54C702.27,1029.77,701.66,1029.59,701.08,1029.45z"/>
<path class="st3" d="M1079.82,466.03c0.14,0.3,0.1,0.56-0.12,0.8C1079.45,466.57,1079.49,466.3,1079.82,466.03z"/>
<path class="st3" d="M1075.89,478.12c0.1,0.3,0.03,0.55-0.2,0.75c-0.02-0.19-0.07-0.37-0.06-0.56
	C1075.64,478.24,1075.8,478.19,1075.89,478.12z"/>
<path class="st3" d="M807.54,228.33c-0.42-0.55-0.29-0.97,0.3-1.28C807.74,227.48,807.64,227.9,807.54,228.33z"/>
<path class="st4" d="M753.99,716.98c-0.13-0.08-0.25-0.16-0.38-0.25c0.11,0.1,0.22,0.2,0.32,0.3L753.99,716.98z"/>
<polygon class="st3" points="1092.46,973.05 1092.13,972.91 1092.35,972.68 "/>
<path class="st4" d="M819.25,798.98c0.68,0.34,0.7,0.69,0.01,1.04C819.25,799.67,819.25,799.33,819.25,798.98z"/>
<path class="st3" d="M704.1,1028.2c0.16-0.19,0.36-0.26,0.6-0.2l-0.26,0.37L704.1,1028.2z"/>
<path class="st3" d="M1140.08,282.1c0.42,0.09,0.56,0.31,0.34,0.61c-0.08,0.11-0.28,0.12-0.43,0.18
	C1139.85,282.61,1139.88,282.34,1140.08,282.1z"/>
<polygon class="st5" points="1160.41,742.71 1160.31,742.41 1160.59,742.44 "/>
<polygon class="st5" points="1160.24,747.47 1160.53,747.36 1160.5,747.65 "/>
<path class="st3" d="M1206.09,186.84c-0.19-0.17-0.25-0.38-0.17-0.63l0.36,0.3L1206.09,186.84z"/>
<path class="st3" d="M924.05,100.06c0.17-0.14,0.35-0.18,0.56-0.12C924.54,100.54,924.33,100.45,924.05,100.06z"/>
<polygon class="st4" points="869.52,972.04 869.53,972.05 869.55,971.79 "/>
<path class="st0" d="M973.93,337.94c-1.64-0.05-3.29-0.09-4.93-0.14c-0.13-0.47-0.26-0.94-0.52-1.93c-2.3,0.71-4.35,0.01-5.61-1.9
	c-3.82,0-7.28,0-11.06,0c-0.6-2.54-3.29-1.77-5.01-2.96c-3.83-2.63-8.47-3.64-12.9-4.98l0.01,0c-3.82-3.96-7.26-8.36-12.82-10.47
	c0.18-4.37-4.07-5.54-6.08-8.78c-0.05-1.15-0.12-2.62-0.18-3.9c-1.67-1.64-2.93-3.47-5.33-3.05c-0.8-3.39-3.49-5.82-2.59-9.34
	c-1.88-0.73-3.08-1.82-4.04-3.75c0.67-2.2-0.14-4.4-1.96-5.97c0-1.84,0-3.33,0-4.53c-0.42-1.25-1.8-1.38-1.92-3.48
	c0-5.87,0-12.68,0-18.92c0.13-1.72,1.51-1.85,1.95-3.16c0-2.31,0-4.96,0-7.48c1.22-1.55,1.84-2.86,1.99-4.38
	c0.11-1.14,0.64-2.01,1.13-3.02c2.24-4.64,4.56-9.32,4.99-14.6l0.08-0.16c0.52-0.15,0.8-0.48,0.78-1.04l0.04-0.04
	c3.83,0.25,5.67-2.95,6.68-5.37c1.24-2.95,3.23-5.13,5.54-6.3c2.09-1.06,2.64-2.59,3.33-4.06c1.22-0.36,2.36,0.03,3.1-0.8
	c2.36-2.61,4.73-5.09,8.18-6.41c0.82-0.31,2.44-1.24,2.22-2.93l0.05-0.02c7.24-0.26,13.81-2.76,20.28-6.03c9.36,0,18.84,0,28.46,0
	c1.74,2.14,4.9,1.92,6.35,3.86c2.96,0,5.46,0,7.95,0c1.04,0.14,2.29-0.23,2.83,1.14c-0.06,1.15,0.53,1.71,1.56,2.2
	c5.31,2.53,9.7,6.5,14.31,9.98c5.66,4.27,10.98,9.35,12.82,16.79c1.32,0,2.31,0,3.3,0l0.01,0.01c-0.11,2.01-0.17,4,1.92,4.85
	c0.07,2.46,0.34,4.59-0.42,6.72c2.16,0.34,3.1,2.16,4.54,3.6c0,1.91,0,3.9,0,5.58c0.48,1.25,1.85,1.37,1.94,3.28
	c-1.07,3.33,1.76,7.29,0.26,11.35c0.52,1.17,2.03,1.85,1.6,3.86c-0.49,0.74-1.2,1.83-1.84,2.81c0,5.01,0,9.83,0,14.65
	c-0.12,1.18-1.54,1.27-1.88,2.32c-0.36,2.84,0.4,5.88-1.39,8.62c-3.6,5.5-6.4,11.5-10.29,16.83c-0.74,1.02-0.4,2.89-1.95,3.23
	c-2.5,0.55-3.73,2.53-5.18,4.2c-2.36,2.72-6.12,3.66-8.35,6.22c-5.02,5.78-11.49,8.55-18.33,10.32c-1.34,1.28-2.51,2.4-3.73,3.56
	c-4,0-7.99,0-11.61,0c-1.3,0.49-1.4,1.89-2.72,1.92c-1.64,0.36-3.53-0.41-5.26,0.54C974.13,336.98,974.03,337.46,973.93,337.94z
	 M953.67,208.52c1.06,2.55,3.01,3.42,4.46,4.7c4.05,3.57,6.34,7.99,7.38,13.16c1.66,8.31-2.99,18.26-10.54,22.5
	c-7.97,4.48-18.08,2.95-24.11-2.38c-3.14-2.77-6.03-5.73-8.46-9.34c-3.48,4.24-4.46,9.01-5.36,13.64
	c-2.8,14.35-0.91,28.05,6.79,40.67c6.03,9.88,14.34,17.21,24.89,22.15c12.36,5.78,25.29,7.32,38.3,4.08
	c12.43-3.09,23.23-9.47,31.03-20.22c8.98-12.38,13.51-25.88,12.14-41.33c-1.35-15.32-8.05-27.79-19.34-37.91
	c-12.41-11.12-27.11-15.73-43.61-14.12C962.61,204.58,957.75,205.32,953.67,208.52z"/>
<path class="st5" d="M973.93,337.94c0.1-0.48,0.21-0.97,0.32-1.47c1.74-0.95,3.62-0.18,5.26-0.54c1.32-0.03,1.42-1.43,2.72-1.92
	c3.62,0,7.61,0,11.61,0c1.22-1.17,2.39-2.28,3.73-3.56c6.84-1.77,13.31-4.55,18.33-10.32c2.23-2.57,5.99-3.5,8.35-6.22
	c1.45-1.68,2.68-3.65,5.18-4.2c1.55-0.34,1.2-2.21,1.95-3.23c3.89-5.33,6.69-11.33,10.29-16.83c1.79-2.74,1.03-5.79,1.39-8.62
	c0.34-1.04,1.76-1.13,1.88-2.32c0-4.82,0-9.64,0-14.65c0.64-0.98,1.35-2.06,1.84-2.81c0.43-2.01-1.08-2.69-1.6-3.86
	c1.5-4.06-1.33-8.02-0.26-11.35c-0.08-1.9-1.46-2.03-1.94-3.28c0-1.68,0-3.67,0-5.58c-1.43-1.44-2.38-3.26-4.54-3.6
	c0.76-2.13,0.49-4.26,0.42-6.72c-2.08-0.85-2.03-2.84-1.92-4.85c1.08,0.3,1.49,1.2,1.96,2.1c6.95,13.31,11.05,27.37,9.8,42.48
	c-0.92,11.07-4.04,21.56-9.16,31.62c-4.71,9.25-11.26,16.81-19.12,23.06c-5.71,4.54-11.91,8.65-19.1,11.18
	c-4.66,1.64-9.37,3.07-14.06,4.57C982.89,338.41,978.4,338.11,973.93,337.94z"/>
<path class="st5" d="M909.05,221.21c-0.43,5.28-2.75,9.96-4.99,14.6c-0.49,1.01-1.02,1.88-1.13,3.02c-0.15,1.52-0.77,2.83-1.99,4.38
	c0,2.51,0,5.17,0,7.48c-0.44,1.31-1.82,1.44-1.95,3.16c0,6.24,0,13.05,0,18.92c0.12,2.11,1.5,2.23,1.92,3.48c0,1.2,0,2.7,0,4.53
	c1.82,1.57,2.63,3.77,1.96,5.97c0.97,1.93,2.16,3.03,4.04,3.75c-0.91,3.52,1.79,5.95,2.59,9.34c2.4-0.42,3.66,1.41,5.33,3.05
	c0.06,1.28,0.13,2.75,0.18,3.9c2.01,3.24,6.26,4.41,6.08,8.78c5.56,2.11,9,6.51,12.82,10.47c-3.87-0.42-6.36-3.21-9.05-5.5
	c-10.38-8.8-18.14-19.6-23.09-32.24c-4.73-12.08-5.99-24.59-3.99-37.51c1.36-8.75,4.26-16.89,7.88-24.86
	C906.46,224.16,907.37,222.38,909.05,221.21z"/>
<path class="st5" d="M1036.79,200.13c-4.95-2.21-4.7-6.92-4.72-11.03c-0.02-4.49,2.19-8.46,6.57-10.15
	c8.39-3.23,16.61-0.65,18.88,9.1c0.86,3.71,0.08,7.17-2.22,10.25c-0.79,1.06-1.59,2.11-2.42,3.2c-4.11,2.48-8.59,1.98-13.01,1.29
	c-1.26-0.2-3.11-0.55-3.06-2.65c3.05-1,5.31,1.44,8.51,2.01c2.21-0.86,4.61-2.35,7.57-2.52c-0.17-2.49,0.05-4.59,1.96-5.58
	c0.35-4.59,0.52-8.74-2.96-12.09c-1.56,0-3.22,0-4.52,0c-1.48-0.38-1.54-2.26-3.03-1.91c-1.3-0.06-1.36,1.4-2.36,1.8
	c-1.4,0.08-2.87,0.17-4.75,0.27c0.29,2.24-1.79,3.34-2.24,4.77c0,3.01,0,5.51,0,8.33C1037.29,196.09,1037.1,198.09,1036.79,200.13z"
	/>
<path class="st5" d="M1002.09,191.91c-2.49,0-4.98,0-7.95,0c-1.46-1.94-4.62-1.72-6.35-3.86c-9.62,0-19.1,0-28.46,0
	c-6.47,3.26-13.04,5.76-20.28,6.03c5.54-3.66,11.76-5.87,18.18-6.91c11.95-1.94,23.96-2.27,35.83,0.91c2.68,0.72,5.1,2.29,8.01,2.28
	C1001.8,190.35,1001.89,191.29,1002.09,191.91z"/>
<path class="st5" d="M1036.92,222.01c-0.99,0-1.98,0-3.3,0c-1.84-7.44-7.16-12.52-12.82-16.79c-4.61-3.47-9-7.45-14.31-9.98
	c-1.04-0.49-1.62-1.05-1.56-2.2c5.64,0.9,9.78,4.69,14.12,7.81c6.71,4.83,12.03,11.17,16.72,17.97
	C1036.39,219.73,1037.21,220.71,1036.92,222.01z"/>
<path class="st5" d="M939,194.1c0.22,1.69-1.39,2.62-2.22,2.93c-3.45,1.32-5.82,3.81-8.18,6.41c-0.74,0.82-1.88,0.44-3.1,0.8
	c-0.69,1.47-1.24,3.01-3.33,4.06c-2.31,1.17-4.3,3.34-5.54,6.3c-1.01,2.42-2.85,5.62-6.68,5.37c-0.27-1.31,0.59-2.32,1.26-3.11
	c7.04-8.29,14.58-16.05,24.18-21.46C936.48,194.78,937.51,193.71,939,194.1z"/>
<path class="st5" d="M933.9,326.04c4.43,1.34,9.07,2.35,12.9,4.98c1.72,1.18,4.41,0.42,5.01,2.96c3.78,0,7.24,0,11.06,0
	c1.25,1.92,3.31,2.61,5.61,1.9c0.27,0.99,0.4,1.46,0.52,1.93c-7.76,0.41-15.04-1.69-22.13-4.49c-3.82-1.51-7.47-3.45-11.22-5.14
	C934.67,327.73,933.9,327.24,933.9,326.04z"/>
<path class="st5" d="M909.91,220.01c0.02,0.56-0.26,0.89-0.78,1.04C909.02,220.42,909.27,220.06,909.91,220.01z"/>
<path class="st0" d="M1281.56,1004.81c-0.78,3.1-1.7,6.11-5.22,8.01c-11.98,0-24.41,0-37.29,0c0-5.88,0-11.74,0-17.85
	c8.13-6.17,17.32-9.33,27.65-8.82c8.18,0.4,12.26,3.55,14.67,10.98C1281.43,999.69,1281.5,1002.25,1281.56,1004.81z"/>
<path class="st3" d="M1281.56,1004.81c-0.06-2.56-0.12-5.12-0.18-7.68C1282.4,999.67,1282.17,1002.24,1281.56,1004.81z"/>
<path class="st0" d="M1239.39,977.69c-0.38,0.28-0.76,0.57-1.22,0.14c-0.26-0.5-0.07-0.91,0.27-1.28
	C1238.76,976.93,1239.07,977.31,1239.39,977.69z"/>
<path class="st0" d="M873.76,1006.12c0.02-3.08,0.03-6.16,0.05-9.24c0.23-0.19,0.28-0.43,0.15-0.7l0.1-0.29
	c0.1-0.06,0.29-0.12,0.29-0.17c0-0.19-0.07-0.38-0.12-0.56c1.53-5.1,4.64-8.32,10.21-8.65c4.89-0.29,9.59,3.22,10.54,7.99
	c0.89,4.46,0.61,8.89-0.49,13.29c-0.98,3.94-3.33,6.54-7.4,7.02c-4.59,0.55-9.03,0.16-11.85-4.32c-0.53-0.84-0.86-1.79-1.28-2.69
	C873.9,1007.24,873.83,1006.68,873.76,1006.12z"/>
<path class="st3" d="M873.76,1006.12c0.07,0.56,0.14,1.12,0.22,1.68C872.83,1007.38,872.8,1006.81,873.76,1006.12z"/>
<path class="st3" d="M874.23,995.15c0.04,0.19,0.11,0.38,0.12,0.56c0,0.06-0.19,0.11-0.29,0.17
	C873.92,995.6,873.97,995.35,874.23,995.15z"/>
<path class="st3" d="M873.96,996.18c0.13,0.27,0.08,0.51-0.15,0.7c-0.43-0.08-0.56-0.3-0.3-0.6
	C873.59,996.19,873.8,996.21,873.96,996.18z"/>
<path class="st0" d="M639.14,1008.63c-8.59-1.44-12.02-6.42-10.45-14.73c0.63-3.36,2.71-5.29,5.51-6.57
	c4.78-2.18,9.81-2.93,15.01-2.04c1.13,3.5,1.32,15.02,0.34,17.72c-1.16,3.18-3.85,4.4-6.76,5.36
	C641.55,1008.17,640.31,1007.92,639.14,1008.63z"/>
<path class="st3" d="M639.14,1008.63c1.17-0.71,2.41-0.46,3.65-0.26C641.63,1009.3,640.39,1009.09,639.14,1008.63z"/>
<path class="st2" d="M1308.95,802c-0.66,0.07-1.45,0.05-1.74,0.74c-1.51,3.54-4.53,6.1-6.08,9.12c-0.49,2.92,1.38,4.44,2.57,6.11
	c4.68,6.6,9.55,13.06,14.35,19.58c6.85,9.3,14.26,18.19,20.77,27.75c1.32,1.94,2.41,3.84,2.99,6.46c-12.26,0-24.2,0-36.8,0
	c-7.67-11.01-15.33-22.55-24.34-34.02c-8.68,11.23-16.04,22.64-23.23,34.02c-11.51,0-22.95,0-34.25,0
	c-0.81-1.77-0.44-3.24-0.33-4.58c12.77-17.92,26.02-35.35,38.59-53.78c-13-17.88-25.86-35.56-38.78-53.32
	c5.89-2.48,27.95-2.77,37.33-0.64c6.02,10.25,13.8,19.46,20.4,29.68c2.29-0.98,3.39-2.61,4.5-4.24c5.02-7.35,10.03-14.7,15.09-22.02
	c0.84-1.22,1.88-2.31,3.32-4.05c11.2,0,22.8,0,35.17,0c-1.42,4.27-3.75,7.09-5.84,9.88c-5.44,7.26-11.03,14.4-16.08,21.95
	c-2.01,3-4.29,5.83-6.54,8.67C1309.35,800.14,1308.96,800.96,1308.95,802L1308.95,802z"/>
<path class="st2" d="M1049.41,724.11c35.75,0,71.22,0,106.67,0c1.13,3.49,1.31,20.16,0.29,25.63c-1.38,0.7-2.9,0.4-4.36,0.41
	c-20.66,0.04-41.33,0.06-61.99,0.05c-2.66,0-5.27,0.06-7.81,1.51c0,12.53,0,25.11,0,38.31c22,0,43.73,0,65.67,0
	c0,9.21,0,17.81,0,26.99c-22.2,0.52-44.2-0.32-66.21,0.97c0,18.08,0,35.78,0,53.76c-10.81,0-21.4,0-31.99,0
	C1048.69,868.2,1048.37,732.16,1049.41,724.11z"/>
<path class="st2" d="M953.67,208.52c4.08-3.2,8.93-3.94,13.58-4.39c16.5-1.61,31.2,3,43.61,14.12
	c11.28,10.11,17.98,22.59,19.34,37.91c1.36,15.44-3.17,28.95-12.14,41.33c-7.8,10.75-18.6,17.13-31.03,20.22
	c-13.01,3.24-25.95,1.7-38.3-4.08c-10.55-4.94-18.86-12.27-24.89-22.15c-7.7-12.62-9.59-26.32-6.79-40.67
	c0.9-4.63,1.88-9.4,5.36-13.64c2.43,3.6,5.32,6.56,8.46,9.34c6.03,5.33,16.14,6.86,24.11,2.38c7.55-4.24,12.2-14.2,10.54-22.5
	c-1.03-5.17-3.33-9.6-7.38-13.16C956.69,211.94,954.74,211.07,953.67,208.52z"/>
<path class="st0" d="M1036.79,200.13c0.31-2.04,0.5-4.04-1.82-4.89c0-2.82,0-5.32,0-8.33c0.45-1.42,2.53-2.52,2.24-4.77
	c1.88-0.11,3.36-0.19,4.75-0.27c1-0.4,1.06-1.85,2.36-1.8c1.49-0.35,1.55,1.53,3.03,1.91c1.3,0,2.96,0,4.52,0
	c3.48,3.35,3.31,7.49,2.96,12.09c-1.91,0.99-2.13,3.08-1.96,5.58c-2.96,0.17-5.36,1.66-7.57,2.52c-3.19-0.57-5.46-3.01-8.51-2.01
	L1036.79,200.13z"/>
</svg>
