<svg width="26" height="26" viewBox="0 0 26 26" fill="none" xmlns="http://www.w3.org/2000/svg">
<rect x="0.5" y="0.5" width="25" height="25" rx="12.5" fill="#003366"/>
<rect x="0.5" y="0.5" width="25" height="25" rx="12.5" stroke="white"/>
<path d="M18.9698 9.63811L16.0028 6.67042C15.9041 6.57173 15.787 6.49344 15.658 6.44003C15.5291 6.38662 15.3909 6.35913 15.2514 6.35913C15.1118 6.35913 14.9737 6.38662 14.8447 6.44003C14.7158 6.49344 14.5987 6.57173 14.5 6.67042L6.31145 14.8596C6.21236 14.9579 6.1338 15.075 6.08033 15.2039C6.02686 15.3328 5.99956 15.4711 6.00001 15.6107V18.5784C6.00001 18.8602 6.11195 19.1304 6.3112 19.3297C6.51046 19.5289 6.78071 19.6409 7.06251 19.6409H10.0302C10.1698 19.6413 10.3081 19.614 10.437 19.5606C10.5659 19.5071 10.683 19.4285 10.7813 19.3294L18.9698 11.1409C19.0685 11.0422 19.1468 10.9251 19.2002 10.7962C19.2536 10.6672 19.2811 10.529 19.2811 10.3895C19.2811 10.2499 19.2536 10.1118 19.2002 9.98284C19.1468 9.85392 19.0685 9.73678 18.9698 9.63811ZM10.0302 18.5784H7.06251V15.6107L12.9063 9.76694L15.874 12.7346L10.0302 18.5784ZM16.625 11.9829L13.6573 9.01588L15.2511 7.42213L18.2188 10.3892L16.625 11.9829Z" fill="white"/>
</svg>
