<svg width="512" height="512" viewBox="0 0 512 512" fill="none" xmlns="http://www.w3.org/2000/svg">
<path d="M171.968 262.266C171.807 262.148 171.645 262.03 171.322 262.03C170.514 260.019 167.766 259.427 165.827 258.126C151.442 248.543 139.967 237.423 133.018 224.055C126.876 212.343 122.997 200.277 122.512 187.737C122.35 182.413 122.835 177.09 123.967 171.884C125.098 167.034 125.906 162.184 128.169 157.57C130.755 152.246 133.664 147.041 137.22 141.954C141.907 135.211 147.725 129.296 154.19 123.499C161.14 117.347 169.059 111.906 178.11 107.41C188.13 102.441 198.797 98.1826 210.111 95.2251C220.131 92.6225 230.637 90.9662 241.304 90.1381C254.88 89.0734 268.456 89.31 281.709 91.4394C296.578 93.8055 310.963 97.2362 324.054 103.388C333.428 107.765 342.479 112.26 350.398 118.057C360.742 125.628 368.985 134.264 375.288 143.965C379.329 150.117 382.238 156.623 384.5 163.13C387.086 170.465 389.026 177.918 388.864 185.489C388.864 190.221 387.733 194.953 387.248 199.803C385.955 209.977 381.106 219.441 375.288 228.55C372.379 232.928 369.146 237.305 365.914 241.564V241.682C365.429 242.037 364.783 242.273 364.298 242.628C356.702 250.2 347.974 256.943 337.954 262.74C334.721 264.632 332.135 267.117 327.771 267.826C283.81 248.07 242.435 250.555 203 275.279C197.666 274.333 192.333 272.085 187.161 269.956C181.827 267.708 177.302 264.514 171.968 262.266ZM189.747 154.257C189.1 154.257 188.777 154.612 188.939 155.085L188.777 155.204C186.999 156.15 186.029 157.451 185.221 158.753C181.504 164.786 178.433 171.056 176.979 177.681C174.877 187.5 176.17 196.964 181.181 206.192C186.353 215.774 194.434 224.055 205.262 230.68C208.01 232.454 210.757 234.584 214.798 234.82C214.798 235.767 215.606 236.122 216.576 236.477C220.455 237.778 224.334 239.198 228.374 240.381C235.809 242.51 243.405 244.166 251.486 243.811C253.264 243.811 254.88 243.93 256.658 243.93C261.345 244.048 266.032 244.285 270.557 243.22C275.406 242.037 280.416 240.972 285.265 239.789C292.7 237.896 299.326 234.702 305.306 231.271C313.549 226.539 320.337 220.743 325.347 213.763C330.681 206.073 333.913 198.147 334.883 189.748C336.176 178.273 331.974 167.507 324.701 157.451C324.216 156.742 323.731 156.032 322.599 155.795C322.923 154.849 322.115 154.021 321.307 153.429C316.458 148.224 310.801 143.492 303.851 139.706C299.326 137.34 294.962 134.501 289.144 133.791C288.659 132.727 287.204 133.081 286.235 132.963C286.073 132.49 285.911 131.78 285.103 131.78C282.033 131.78 279.608 130.597 276.699 130.006C264.254 127.64 251.648 127.876 239.203 129.296C232.415 130.124 225.95 131.78 220.131 134.501C218.515 134.146 217.546 134.974 216.414 135.447C206.394 139.588 198.474 145.503 191.201 151.773C190.393 152.483 189.423 153.193 189.747 154.257ZM322.438 139.115C322.438 140.771 324.377 141.008 325.67 141.126C330.357 141.599 335.044 142.072 339.246 140.18C340.055 139.351 341.024 138.523 341.832 137.695C344.257 135.329 345.065 132.727 344.095 129.887C341.671 122.434 333.105 120.542 324.377 122.908C319.852 124.209 317.428 127.166 317.589 130.597C317.428 133.91 317.266 137.459 322.438 139.115Z" fill="#EF8627"/>
<path d="M255.85 246.651C301.016 246.651 337.63 219.85 337.63 186.79C337.63 153.73 301.016 126.93 255.85 126.93C210.684 126.93 174.069 153.73 174.069 186.79C174.069 219.85 210.684 246.651 255.85 246.651Z" fill="white"/>
<path d="M79.521 189.156C78.8745 184.897 78.5513 180.639 79.8442 176.498C80.0059 180.639 80.0059 184.897 79.521 189.156Z" fill="#1A6CAE"/>
<path d="M81.1369 167.862C81.1369 167.152 80.8137 166.324 81.6218 165.733C82.1066 166.561 81.7834 167.271 81.1369 167.862Z" fill="#5AA552"/>
<path d="M80.9754 169.4C80.0057 168.927 80.0057 168.454 81.137 168.099C80.9754 168.572 80.9754 168.927 80.9754 169.4Z" fill="#5AA552"/>
<path d="M367.369 341.41C367.53 341.646 367.53 341.883 367.207 342.001C366.884 341.764 367.046 341.646 367.369 341.41Z" fill="#5AA552"/>
<path d="M363.166 350.637C363.328 350.874 363.166 351.111 363.005 351.229C363.005 351.111 363.005 350.992 363.005 350.756C363.005 350.637 363.166 350.637 363.166 350.637Z" fill="#5AA552"/>
<path d="M82.7534 160.646C82.2685 160.173 82.4301 159.936 83.0766 159.699C82.915 159.936 82.7534 160.291 82.7534 160.646Z" fill="#5AA552"/>
<path d="M430.401 201.459C430.886 201.578 431.047 201.696 430.724 201.932C430.562 202.051 430.401 202.051 430.239 202.051C430.078 201.932 430.078 201.696 430.401 201.459Z" fill="#5AA552"/>
<path d="M499.414 129.059C499.252 128.941 499.09 128.823 499.252 128.586L499.575 128.823L499.414 129.059Z" fill="#5AA552"/>
<path d="M204.454 63.0473C204.616 62.929 204.777 62.929 205.101 62.929C205.101 63.4022 204.777 63.2839 204.454 63.0473Z" fill="#5AA552"/>
<path d="M189.747 154.257C189.747 154.73 189.424 154.967 188.939 155.085C188.777 154.612 189.1 154.257 189.747 154.257Z" fill="#F8E8C8"/>
<path d="M235.486 145.503C239.688 143.019 244.86 142.545 249.708 142.191C267.002 141.007 282.356 144.438 295.286 152.956C307.084 160.645 314.034 170.11 315.488 181.821C316.943 193.533 312.094 203.825 302.72 213.289C294.639 221.452 283.326 226.303 270.234 228.669C256.658 231.153 243.082 229.97 230.152 225.593C219.162 221.807 210.434 216.247 204.131 208.794C196.05 199.212 194.111 188.801 197.02 177.917C197.989 174.368 198.959 170.819 202.676 167.507C205.262 170.228 208.172 172.476 211.566 174.605C217.869 178.627 228.374 179.81 236.779 176.38C244.698 173.185 249.547 165.614 247.769 159.226C246.637 155.322 244.213 151.891 240.011 149.17C238.718 148.106 236.617 147.514 235.486 145.503Z" fill="#EF8627"/>
<path d="M80.9754 169.4C80.6522 171.766 80.3289 174.132 79.844 176.38C78.5511 180.638 78.8743 184.779 79.5208 189.038C80.1673 194.243 80.8138 199.33 81.7835 204.535C84.2078 217.785 89.8646 230.443 97.784 242.392C108.289 258.126 122.674 271.849 141.26 283.206C153.867 290.895 166.958 297.757 182.474 303.08C177.14 315.029 177.463 327.332 179.726 339.872C158.715 355.369 137.705 370.748 116.532 386.482C112.168 383.17 109.098 379.384 105.865 375.717C92.4505 361.403 79.844 346.733 68.2073 331.591C55.4392 314.91 43.3176 297.993 32.8122 280.485C21.1755 260.965 11.3165 240.972 5.33655 220.033C0.48791 202.761 -1.28993 185.134 0.972773 167.507C2.58899 154.257 6.30628 141.244 11.963 128.586C19.7209 110.959 31.3576 94.7518 45.5803 79.6093C54.4695 70.2635 64.8132 61.6275 75.9651 53.7013C94.0667 40.6882 114.431 30.0411 136.896 21.5234C159.847 12.8874 183.767 6.26257 209.464 3.54164C211.404 3.30504 213.182 3.06844 215.121 2.83183C215.768 2.95014 216.414 2.95013 216.899 2.59523C233.384 0.110907 250.193 -0.362297 267.002 0.229208C271.365 0.34751 275.568 0.702413 279.931 0.939016C280.74 1.53052 281.709 1.41222 282.679 1.17562C287.366 1.29392 292.053 1.76712 296.74 2.59523C297.548 3.06844 298.518 2.95014 299.488 2.95014C309.67 4.01485 319.69 5.78936 329.549 7.80048C343.449 10.6397 356.702 15.0169 369.631 19.394C381.106 23.2979 391.773 28.3849 402.279 33.4718C421.673 42.9359 438.32 54.5294 453.19 67.5426C466.443 79.1361 477.756 91.676 486.645 105.399C491.494 112.97 496.181 120.541 499.413 128.586C499.413 128.823 499.413 128.941 499.575 129.059C504.908 139.351 507.656 149.998 509.757 160.764C512.828 176.498 512.666 192.35 509.757 208.084C507.818 218.968 503.939 229.615 499.737 240.144C491.817 260.255 480.019 279.302 467.897 298.112C456.584 315.738 443.007 332.537 429.27 349.218C408.582 374.297 385.47 398.076 361.227 421.381C348.459 433.685 335.368 445.87 321.791 457.581C301.265 475.208 280.255 492.599 259.082 509.752C258.274 510.462 257.466 511.054 256.173 512C231.122 491.534 205.909 471.423 182.15 449.774C207.525 430.845 232.9 412.036 257.789 392.871C279.931 395.71 301.104 393.817 320.983 385.891C340.701 377.965 354.762 366.371 363.49 351.229C363.651 351.11 363.813 350.874 363.651 350.637C364.944 347.798 366.237 344.959 367.692 342.001C367.853 341.765 368.015 341.646 367.853 341.41C368.5 337.624 369.47 333.957 369.793 330.171C371.086 317.04 367.369 304.855 358.964 293.261C358.641 292.788 358.318 292.315 357.995 291.842C372.217 283.679 384.985 274.688 395.814 264.159C407.451 252.92 416.178 240.735 422.643 227.486C426.684 219.205 428.785 210.687 430.886 202.169C431.047 202.169 431.209 202.169 431.371 202.051C431.532 201.814 431.532 201.696 431.047 201.578C432.179 193.652 432.825 185.725 432.017 177.681C430.724 164.668 427.33 151.891 420.542 139.706C414.239 128.704 407.127 118.057 397.107 108.593C385.955 97.946 373.025 88.8368 357.833 81.1472C345.873 75.1138 333.266 69.7903 319.529 66.1229C299.972 60.9177 279.931 57.8419 258.921 57.6053C240.819 57.3687 223.202 59.6164 205.909 63.0471C205.747 63.0471 205.424 63.0471 205.262 63.1654C188.454 66.7145 172.776 72.1563 158.392 79.2544C143.523 86.589 130.432 95.3433 119.118 105.636C105.219 117.466 95.3597 130.597 88.5716 145.03C86.3089 149.762 84.8543 154.731 83.0765 159.581C82.43 159.817 82.2684 160.172 82.7532 160.527C82.43 162.302 82.1067 163.958 81.6219 165.733C80.8138 166.324 81.137 167.152 81.137 167.862V168.099C80.0057 168.453 80.0057 168.927 80.9754 169.4Z" fill="#1B3B69"/>
<path d="M264.577 331.591C275.244 334.903 286.558 337.506 298.033 340.582C313.549 329.58 328.903 318.459 343.933 306.747C352.984 318.577 352.338 342.119 334.236 358.918C315.973 376.072 282.356 385.654 250.355 377.255C222.879 397.011 196.211 417.477 168.736 438.18C154.351 425.64 141.26 412.627 127.199 399.85C151.281 380.567 177.302 363.059 201.06 344.249C201.222 341.173 199.606 338.689 198.959 336.086C197.02 328.396 197.504 320.825 199.605 313.136C203.484 298.939 213.667 287.819 229.667 279.301C238.718 274.451 248.9 271.967 259.89 270.666C269.911 269.364 279.931 270.074 289.79 271.612C292.053 271.967 294.639 271.967 296.417 274.215C281.709 285.335 267.002 296.337 252.456 307.339C253.587 312.071 260.86 326.504 264.577 331.591Z" fill="#5AA552"/>
<path d="M330.842 143.492C339.143 143.492 345.873 138.566 345.873 132.49C345.873 126.414 339.143 121.488 330.842 121.488C322.541 121.488 315.811 126.414 315.811 132.49C315.811 138.566 322.541 143.492 330.842 143.492Z" fill="white"/>
</svg>
