<svg xmlns="http://www.w3.org/2000/svg" xml:space="preserve" id="Layer_1" x="0" y="0" viewBox="0 0 204.4 273.5"><style>.st0{fill:#ef8627}.st1{fill:#fff}.st3{fill:#5aa552}</style><path d="M70.7 139.9c-.1-.1-.1-.1-.2-.1-.3-1-1.3-1.3-2.1-2-5.4-4.9-9.7-10.6-12.3-17.4-2.3-6-3.8-12.2-3.9-18.6-.1-2.7.1-5.4.5-8.1.4-2.5.7-5 1.6-7.3 1-2.7 2.1-5.4 3.4-8 1.8-3.4 3.9-6.5 6.4-9.4 2.6-3.1 5.6-5.9 9-8.2 3.8-2.5 7.7-4.7 12-6.2 3.8-1.3 7.7-2.2 11.7-2.6 5.1-.5 10.2-.4 15.1.7 5.6 1.2 10.9 3 15.8 6.1 3.5 2.2 6.9 4.5 9.9 7.5q5.85 5.85 9.3 13.2c1.5 3.1 2.6 6.5 3.4 9.8 1 3.8 1.7 7.6 1.6 11.4 0 2.4-.4 4.8-.6 7.3-.5 5.2-2.3 10-4.5 14.7-1.1 2.2-2.3 4.5-3.5 6.7v.1c-.2.2-.4.3-.6.5-2.8 3.9-6.1 7.3-9.9 10.3-1.2 1-2.2 2.2-3.8 2.6-16.5-10.1-31.9-8.8-46.7 3.8-2-.5-4-1.6-5.9-2.7-2-1.3-3.7-2.9-5.7-4.1m6.7-55.2c-.2 0-.4.2-.3.4l-.1.1c-.7.5-1 1.1-1.3 1.8-1.4 3.1-2.5 6.3-3.1 9.7-.8 5-.3 9.9 1.6 14.6 1.9 4.9 5 9.1 9 12.5 1 .9 2.1 2 3.6 2.1 0 .5.3.7.7.8 1.5.7 2.9 1.4 4.4 2 2.8 1.1 5.6 1.9 8.6 1.8.7 0 1.3.1 1.9.1 1.8.1 3.5.2 5.2-.4 1.8-.6 3.7-1.1 5.5-1.8 2.8-1 5.3-2.6 7.5-4.4q4.65-3.6 7.5-9 3-5.85 3.6-12.3c.5-5.9-1.1-11.4-3.8-16.5-.2-.4-.4-.7-.8-.8.1-.5-.2-.9-.5-1.2-1.8-2.7-3.9-5.1-6.5-7-1.7-1.2-3.3-2.7-5.5-3-.2-.5-.7-.4-1.1-.4-.1-.2-.1-.6-.4-.6-1.1 0-2.1-.6-3.1-.9-4.7-1.2-9.4-1.1-14-.4-2.5.4-5 1.3-7.1 2.7-.6-.2-1 .2-1.4.5-3.8 2.1-6.7 5.1-9.4 8.3-.5.4-.8.8-.7 1.3M127 77c0 .8.7 1 1.2 1 1.8.2 3.5.5 5.1-.5.3-.4.7-.8 1-1.3.9-1.2 1.2-2.5.8-4-.9-3.8-4.1-4.8-7.4-3.6-1.7.7-2.6 2.2-2.5 3.9 0 1.8-.1 3.6 1.8 4.5" class="st0"/><circle cx="102.1" cy="101.4" r="30.6" class="st1"/><path fill="#1a6cae" d="M36.1 102.6c-.2-2.2-.4-4.4.1-6.5.1 2.1.1 4.3-.1 6.5"/><path d="M36.7 91.7c0-.4-.1-.8.2-1.1.2.4.1.8-.2 1.1M36.7 92.5c-.4-.2-.4-.5.1-.7-.1.2-.1.4-.1.7M143.9 180.4c.1.1.1.2-.1.3-.1-.1-.1-.2.1-.3M142.3 185.1c.1.1 0 .2-.1.3 0 0 0-.1.1-.3-.1 0 0 0 0 0M37.3 88c-.2-.2-.1-.4.1-.5 0 .1-.1.3-.1.5M167.5 108.9c.2.1.2.1.1.2s-.1.1-.2.1c-.1-.1-.1-.2.1-.3M193.3 71.8c-.1-.1-.1-.1-.1-.2l.1.1zM82.9 38.1c.1-.1.1-.1.2-.1 0 .3-.1.2-.2.1" class="st3"/><path fill="#f8e8c8" d="M77.4 84.7c0 .2-.1.4-.3.4-.1-.2 0-.4.3-.4"/><path d="M94.5 80.2c1.6-1.3 3.5-1.5 5.3-1.7 6.5-.6 12.2 1.1 17.1 5.5 4.4 3.9 7 8.8 7.6 14.8.5 6-1.3 11.3-4.8 16.1-3 4.2-7.3 6.7-12.2 7.9-5.1 1.3-10.2.7-15-1.6-4.1-1.9-7.4-4.8-9.7-8.6-3-4.9-3.8-10.2-2.7-15.8.4-1.8.7-3.6 2.1-5.3 1 1.4 2.1 2.5 3.3 3.6 2.4 2.1 6.3 2.7 9.4.9 3-1.6 4.8-5.5 4.1-8.8-.4-2-1.3-3.8-2.9-5.1-.4-.5-1.2-.8-1.6-1.9" class="st0"/><path fill="#1b3b69" d="M36.7 92.5c-.1 1.2-.2 2.4-.4 3.6-.5 2.2-.4 4.3-.1 6.5.2 2.7.5 5.3.8 7.9.9 6.8 3 13.2 6 19.4 3.9 8 9.3 15.1 16.3 20.9 4.7 3.9 9.6 7.4 15.4 10.2-2 6.1-1.9 12.4-1 18.8-7.9 7.9-15.7 15.8-23.7 23.8-1.6-1.7-2.8-3.6-4-5.5-5-7.3-9.7-14.8-14.1-22.6-4.8-8.5-9.3-17.2-13.2-26.1-4.4-10-8-20.2-10.3-30.9-1.8-8.8-2.5-17.8-1.6-26.9.6-6.8 2-13.4 4.1-19.9 2.9-9 7.3-17.3 12.6-25 3.3-4.8 7.2-9.2 11.4-13.2 6.8-6.7 14.4-12.1 22.8-16.5 8.6-4.4 17.5-7.8 27.2-9.2.7-.1 1.4-.2 2.1-.4.2.1.5.1.7-.1 6-1.4 12.3-1.6 18.6-1.3 1.6.1 3.2.2 4.8.4.3.3.7.2 1 .1 1.8.1 3.5.3 5.3.7.3.2.7.2 1 .2 3.8.5 7.6 1.5 11.3 2.5 5.2 1.5 10.2 3.7 15 5.9 4.3 2 8.3 4.6 12.2 7.2 7.3 4.8 13.5 10.8 19.1 17.4 5 5.9 9.2 12.3 12.5 19.4 1.8 3.9 3.6 7.7 4.8 11.9 0 .1 0 .2.1.2 2 5.3 3 10.7 3.8 16.2 1.1 8 1.1 16.2 0 24.2-.7 5.6-2.2 11-3.8 16.4-3 10.3-7.4 20-11.9 29.6-4.2 9-9.3 17.6-14.5 26.1-7.7 12.8-16.4 25-25.5 36.9-4.8 6.3-9.7 12.5-14.8 18.5-7.7 9-15.5 17.9-23.5 26.7-.3.4-.6.7-1.1 1.1-9.4-10.5-18.8-20.7-27.7-31.8 9.5-9.7 19-19.3 28.3-29.1 8.3 1.5 16.2.5 23.7-3.6 7.4-4.1 12.6-10 15.9-17.7.1-.1.1-.2.1-.3.5-1.5 1-2.9 1.5-4.4.1-.1.1-.2.1-.3.2-1.9.6-3.8.7-5.7.5-6.7-.9-12.9-4.1-18.9-.1-.2-.2-.5-.4-.7 5.3-4.2 10.1-8.8 14.2-14.2 4.4-5.7 7.6-12 10-18.8 1.5-4.2 2.3-8.6 3.1-12.9.1 0 .1 0 .2-.1s.1-.2-.1-.2c.4-4.1.7-8.1.4-12.2-.5-6.7-1.8-13.2-4.3-19.4-2.4-5.6-5-11.1-8.8-15.9-4.2-5.4-9-10.1-14.7-14-4.5-3.1-9.2-5.8-14.3-7.7-7.3-2.7-14.8-4.2-22.7-4.4-6.8-.1-13.4 1-19.8 2.8-.1 0-.2 0-.2.1-6.3 1.8-12.2 4.5-17.5 8.2-5.6 3.8-10.5 8.2-14.7 13.5-5.2 6-8.9 12.8-11.4 20.1-.8 2.4-1.4 5-2.1 7.4-.2.1-.3.3-.1.5-.1.9-.2 1.8-.4 2.7-.3.3-.2.7-.2 1.1v.1c-.5.2-.5.4-.1.7"/><path d="M105.4 175.4c4 1.7 8.2 3 12.5 4.6 5.8-5.6 11.6-11.3 17.2-17.3 3.4 6 3.1 18.1-3.6 26.7-6.8 8.8-19.4 13.7-31.4 9.4-10.3 10.1-20.3 20.6-30.5 31.2-5.4-6.4-10.3-13.1-15.5-19.6 9-9.9 18.8-18.8 27.6-28.4.1-1.6-.5-2.8-.8-4.2-.7-3.9-.5-7.8.2-11.7 1.5-7.3 5.3-12.9 11.3-17.3 3.4-2.5 7.2-3.8 11.3-4.4 3.8-.7 7.5-.3 11.2.5.8.2 1.8.2 2.5 1.3-5.5 5.7-11 11.3-16.5 16.9.4 2.3 3.1 9.7 4.5 12.3" class="st3"/><circle cx="130.2" cy="73.6" r="5.6" class="st1"/></svg>