<svg width="10" height="12" viewBox="0 0 10 12" fill="none" xmlns="http://www.w3.org/2000/svg">
<path d="M9.38641 1.26575L2.45541 0.0112429C2.26111 -0.0233102 2.06137 0.0225095 1.89998 0.138658C1.73858 0.254807 1.6287 0.431808 1.59442 0.630862L0.0113267 9.84879C-0.00567209 9.94756 -0.00351918 10.0488 0.0176625 10.1467C0.0388441 10.2447 0.0786395 10.3373 0.134775 10.4195C0.190911 10.5017 0.262288 10.5717 0.344828 10.6255C0.427368 10.6794 0.519455 10.7161 0.615828 10.7335L7.54684 11.988C7.59003 11.996 7.63384 12.0001 7.67774 12C7.85215 11.9986 8.02053 11.9344 8.15355 11.8188C8.28657 11.7032 8.3758 11.5434 8.4057 11.3673L9.98879 2.14936C10.0229 1.95036 9.97859 1.74563 9.86568 1.58001C9.75278 1.41439 9.58044 1.30139 9.38641 1.26575ZM9.36353 2.037L7.78044 11.2549C7.77809 11.2691 7.77302 11.2827 7.76554 11.2949C7.75805 11.307 7.74828 11.3176 7.73681 11.3258C7.71374 11.3423 7.68523 11.3488 7.65752 11.3438L0.724383 10.0899C0.710255 10.0876 0.696723 10.0824 0.684596 10.0746C0.672468 10.0668 0.661994 10.0566 0.653798 10.0446C0.645603 10.0326 0.639854 10.019 0.636896 10.0047C0.633937 9.99034 0.63383 9.97553 0.636581 9.96115L2.21967 0.743222C2.22202 0.729038 2.22709 0.71547 2.23458 0.703301C2.24207 0.691131 2.25183 0.680601 2.26331 0.672315C2.287 0.65538 2.31626 0.648715 2.34472 0.65377L9.27573 1.90828C9.28986 1.91057 9.30339 1.91576 9.31552 1.92353C9.32765 1.93131 9.33812 1.9415 9.34632 1.95352C9.35451 1.96554 9.36026 1.97912 9.36322 1.99347C9.36618 2.00781 9.36628 2.02262 9.36353 2.037ZM8.09227 3.13606C8.07972 3.21217 8.04133 3.28129 7.98388 3.33119C7.92643 3.38109 7.85362 3.40858 7.77831 3.40878C7.75959 3.40878 7.7409 3.40713 7.72244 3.40388L3.30575 2.60426C3.26337 2.59804 3.22265 2.58315 3.18599 2.56046C3.14934 2.53778 3.11752 2.50778 3.09241 2.47223C3.0673 2.43669 3.04943 2.39633 3.03984 2.35356C3.03026 2.31079 3.02916 2.26649 3.03662 2.22327C3.04408 2.18006 3.05995 2.13883 3.08327 2.10203C3.10659 2.06523 3.13689 2.03361 3.17238 2.00906C3.20786 1.98451 3.2478 1.96752 3.28982 1.95911C3.33184 1.9507 3.37508 1.95103 3.41697 1.9601L7.83366 2.75917C7.91654 2.77435 7.99021 2.82247 8.03865 2.89306C8.08708 2.96364 8.10635 3.05098 8.09227 3.13606ZM7.79694 4.85365C7.78439 4.92976 7.746 4.99887 7.68855 5.04878C7.6311 5.09868 7.55829 5.12617 7.48298 5.12637C7.46512 5.12623 7.44731 5.1244 7.42977 5.12092L3.01308 4.32185C2.92967 4.30673 2.85554 4.25827 2.80699 4.18713C2.75844 4.11599 2.73945 4.02799 2.7542 3.9425C2.76895 3.857 2.81622 3.78102 2.88563 3.73125C2.95504 3.68149 3.04089 3.66202 3.12429 3.67714L7.54098 4.47675C7.62337 4.49256 7.69639 4.54095 7.74428 4.61146C7.79217 4.68198 7.81108 4.76897 7.79694 4.85365ZM5.29592 6.17307C5.28279 6.24877 5.24408 6.31732 5.18658 6.36669C5.12907 6.41606 5.05644 6.4431 4.98143 6.44306C4.96271 6.44301 4.94402 6.44137 4.92556 6.43815L2.71775 6.03835C2.67537 6.03213 2.63464 6.01723 2.59799 5.99455C2.56134 5.97187 2.52951 5.94186 2.50441 5.90632C2.4793 5.87078 2.46142 5.83042 2.45184 5.78765C2.44225 5.74488 2.44116 5.70057 2.44862 5.65736C2.45608 5.61415 2.47194 5.57292 2.49526 5.53612C2.51859 5.49932 2.54889 5.4677 2.58437 5.44315C2.61986 5.41859 2.6598 5.40161 2.70181 5.39319C2.74383 5.38478 2.78707 5.38512 2.82896 5.39418L5.03677 5.79345C5.07815 5.80107 5.11764 5.81698 5.153 5.84029C5.18835 5.86359 5.21887 5.89382 5.2428 5.92925C5.26673 5.96467 5.2836 6.00459 5.29244 6.04671C5.30128 6.08883 5.30192 6.13233 5.29433 6.17471L5.29592 6.17307Z" fill="#FF7A00"/>
</svg>
